<svg width="70" height="70" viewBox="0 0 70 70" fill="none" xmlns="http://www.w3.org/2000/svg">
    <path d="M7.76929 68.996C7.164 68.686 6.97592 68.1804 7.00241 67.5164C7.38254 57.8541 11.466 50.2034 19.3163 44.5912C19.4911 44.4661 19.6659 44.3411 19.7533 44.2785C19.2461 43.2687 18.6898 42.3413 18.303 41.346C17.703 39.8053 17.9335 38.2179 18.2421 36.6372C19.1083 32.1906 19.9547 27.7412 20.8023 23.2906C20.8553 23.0112 20.8553 22.7184 20.8553 22.4324C20.858 17.7409 20.858 13.0481 20.8567 8.35657C20.854 4.07754 23.8606 1.01863 28.1096 1.00798C32.846 0.997339 37.5824 0.997339 42.3201 1.00798C46.4552 1.01597 49.3983 3.96578 49.4075 8.11574C49.4194 13.5816 49.3426 19.0501 49.4499 24.5147C49.4843 26.2816 49.9347 28.0486 50.2764 29.7996C50.781 32.3795 51.3704 34.9421 51.9016 37.5181C52.3929 39.8957 51.8247 41.986 50.1506 43.7583C50.079 43.8341 50.0141 43.918 49.9453 43.9991C50.981 44.7988 52.0274 45.5319 52.9903 46.3635C58.6724 51.2705 62.0565 57.4389 62.9863 64.9312C63.0896 65.7641 63.079 66.6104 63.1598 67.4459C63.2181 68.058 63.0604 68.5676 62.63 68.9973H61.573C61.1373 68.5702 61.0181 68.0527 61.0247 67.4473C61.0326 66.6755 60.9889 65.8958 60.883 65.1308C59.634 56.0951 54.9585 49.4051 47.1082 44.9026C46.9757 44.8267 46.8221 44.7908 46.6724 44.7336C46.981 45.9457 47.3771 47.0846 47.5493 48.2555C48.0128 51.4235 48.381 54.6062 48.7837 57.7849C48.83 58.1481 48.789 58.4794 49.2963 58.6364C51.6075 59.3522 53.1095 61.4186 53.0764 63.7404C53.0433 66.1274 51.4949 68.1391 49.1625 68.8324C49.0208 68.8749 48.887 68.9415 48.7506 68.9973H46.9002C46.8009 68.9548 46.7055 68.8989 46.6022 68.8723C44.2181 68.2589 42.6023 66.311 42.5175 63.9426C42.4287 61.4518 43.8539 59.4281 46.2632 58.6204C46.4221 58.5672 46.5731 58.4887 46.74 58.4155C46.6128 57.0092 46.5122 55.64 46.3612 54.2789C46.0499 51.4648 45.6738 48.6587 44.789 45.955C44.4989 45.0689 44.0936 44.22 43.6883 43.2234C43.4155 43.572 43.2658 43.7543 43.1268 43.9446C40.8208 47.1006 38.5175 50.2593 36.2089 53.414C35.4765 54.4159 34.8076 54.4146 34.0685 53.4087C32.2645 50.9512 30.4672 48.491 28.6672 46.0322C27.9904 45.1088 27.3136 44.1854 26.5573 43.1529C25.5083 45.9444 25.2315 48.7332 25.0911 51.5406C28.9785 52.5186 30.9083 55.0107 30.9056 58.969C30.903 61.1152 30.9083 63.2627 30.9016 65.4089C30.9016 65.7162 30.8857 66.0302 30.8261 66.3309C30.5401 67.7653 29.5414 68.5223 28.2619 69H27.3361C26.9573 68.6607 26.5626 68.3214 26.7017 67.7307C26.8447 67.1213 27.3056 66.9536 27.8659 66.8312C28.4579 66.7022 28.7891 66.2578 28.7891 65.6204C28.7891 63.123 28.8288 60.6242 28.7705 58.1281C28.7122 55.6267 26.5679 53.611 24.0646 53.5976C21.5533 53.5843 19.3745 55.5615 19.299 58.0616C19.2222 60.6016 19.2712 63.1443 19.2792 65.687C19.2805 66.2937 19.6302 66.7141 20.1957 66.8312C20.7586 66.9483 21.2169 67.1213 21.3613 67.7293C21.5017 68.3201 21.1057 68.6594 20.7282 69H19.8024C19.6659 68.9375 19.5335 68.8683 19.3944 68.8151C18.0037 68.2855 17.1666 67.1026 17.1613 65.6071C17.152 63.1722 17.1481 60.7373 17.164 58.3038C17.1745 56.7737 17.658 55.3965 18.5851 54.1791C19.6911 52.7275 21.1732 51.8932 22.8474 51.5646C23.1772 49.151 23.4977 46.8079 23.8235 44.4276C23.5878 44.5433 23.3666 44.6378 23.1573 44.7549C14.315 49.7032 9.64743 57.2633 9.14412 67.4127C9.11233 68.0673 9.04081 68.6368 8.43286 68.9987H7.77194L7.76929 68.996ZM47.3016 23.3318C41.2433 22.9619 35.6897 21.4105 31.0963 17.6278C29.8367 18.5485 28.6977 19.5957 27.3758 20.2902C26.0381 20.9941 24.5176 21.3506 23.0831 21.8576C23.0831 24.1913 22.8805 26.6821 23.1242 29.129C23.6898 34.8051 28.2725 39.1267 34.0963 39.7414C39.4897 40.3109 44.8221 36.8036 46.638 31.5452C47.5612 28.8735 47.2115 26.1273 47.3016 23.3318ZM47.2685 14.7884C47.2685 12.267 47.3771 9.78956 47.2367 7.3254C47.1042 5.01558 45.1042 3.16878 42.8499 3.15016C37.8089 3.10758 32.7665 3.09826 27.7255 3.15415C24.9984 3.18475 22.9825 5.35353 22.9732 8.08114C22.9679 9.34117 22.9719 10.6025 22.9719 11.8625C22.9719 12.8285 22.9719 13.7945 22.9719 14.7871H47.2698L47.2685 14.7884ZM41.4552 42.6486C37.8182 41.5523 30.8593 41.5868 28.8619 42.6965C30.9414 45.5412 33.0169 48.3833 35.1334 51.2798C37.2685 48.3646 39.34 45.5372 41.4552 42.65V42.6486ZM28.9374 40.3787C25.1732 38.4295 22.7335 35.5462 21.4394 31.6171C21.3692 31.7462 21.3057 31.8153 21.2911 31.8939C20.8858 34.0626 20.4302 36.2234 20.1017 38.4042C19.8593 40.0102 20.3639 41.4591 21.4262 42.6979C21.6209 42.9254 21.7838 43.0917 22.1388 42.9001C24.2381 41.7665 26.4646 40.9628 28.9374 40.3774V40.3787ZM41.4446 40.3707C41.5824 40.4399 41.6393 40.4745 41.7003 40.4985C43.6685 41.2476 45.6327 42.0073 47.6102 42.7285C47.8128 42.803 48.1757 42.7245 48.3373 42.5768C49.638 41.3886 50.1784 39.8957 49.8539 38.1554C49.5426 36.4855 49.1492 34.8304 48.7903 33.1698C48.7439 32.9543 48.6883 32.7401 48.5943 32.3489C47.1638 36.0105 44.8287 38.6091 41.4433 40.3734L41.4446 40.3707ZM47.2711 16.9984H33.8036C37.9837 19.7433 42.4632 20.9156 47.2711 21.1497V16.9984ZM50.9929 63.7111C51.0062 61.9721 49.6049 60.5244 47.8817 60.5005C46.1148 60.4752 44.6658 61.8922 44.6526 63.6565C44.6407 65.3969 46.0367 66.8405 47.7612 66.8698C49.5201 66.8991 50.9784 65.4727 50.9916 63.7111H50.9929ZM28.4672 16.9878H23.0103V19.5065C25.0977 19.251 26.8672 18.4354 28.4672 16.9878Z" fill="#0987ED"/>
</svg>
