<svg width="70" height="70" viewBox="0 0 70 70" fill="none" xmlns="http://www.w3.org/2000/svg">
    <g clip-path="url(#clip0_2069_4)">
        <path d="M4 35.4652C4 26.1912 4 16.9186 4 7.64465C4 5.22233 5.21182 4 7.61311 4C21.3453 4 35.0774 4 48.8096 4C50.9993 4 52.286 5.2749 52.286 7.44881C52.2887 13.7918 52.286 20.1348 52.286 26.4778C52.286 26.6526 52.3031 26.8326 52.2689 27.0009C52.1559 27.5621 51.8221 27.8985 51.2293 27.8946C50.6378 27.8893 50.3027 27.5529 50.2028 26.9877C50.1647 26.7748 50.187 26.5514 50.187 26.3332C50.187 20.0993 50.187 13.8667 50.187 7.63282C50.187 6.39077 49.8913 6.09899 48.6348 6.09899C34.946 6.09899 21.2585 6.09899 7.56973 6.09899C6.41312 6.09899 6.09899 6.41443 6.09899 7.58025C6.09899 26.1925 6.09899 44.8061 6.09899 63.4184C6.09899 64.5803 6.41049 64.8944 7.57499 64.8944C21.2848 64.8944 34.996 64.8944 48.7058 64.8944C49.8676 64.8944 50.1857 64.5777 50.1857 63.4198C50.187 60.2483 50.1857 57.0768 50.1857 53.9053C50.1857 53.7305 50.1778 53.5544 50.1883 53.3809C50.2278 52.7237 50.672 52.2821 51.2648 52.3005C51.8326 52.3176 52.265 52.7447 52.2768 53.3769C52.2992 54.4915 52.2847 55.6073 52.2847 56.7232C52.2847 59.0194 52.2873 61.3168 52.2847 63.613C52.2808 65.6699 50.9743 66.9947 48.9371 66.9947C35.0958 66.9974 21.2546 66.9974 7.41333 66.9947C5.28673 66.9947 4.00131 65.6936 4 63.5459C4 54.1879 4 44.8259 4 35.4652Z" fill="#0987ED"/>
        <path d="M66.0801 22.2285C66.6833 23.004 66.6965 23.2208 66.2049 24.0725C65.4111 25.4513 64.6159 26.8274 63.8023 28.239C64.1532 28.4493 64.4753 28.6293 64.7841 28.8291C66.2286 29.7636 66.7228 31.5169 65.8829 33.0205C64.5305 35.4415 63.1241 37.8349 61.7296 40.2323C61.3563 40.8737 60.7767 41.0564 60.2444 40.7501C59.695 40.4347 59.5728 39.8196 59.9579 39.1506C61.1973 36.9911 62.4472 34.8369 63.6919 32.6801C64.5423 31.2067 64.4122 30.8177 62.7771 30.0803C62.6496 30.2893 62.513 30.5049 62.3855 30.7257C59.7029 35.3811 57.0703 40.068 54.3128 44.6787C53.4007 46.2033 52.1534 47.5255 51.0835 48.9594C50.3146 49.9899 49.547 51.0256 48.8531 52.106C48.0408 53.3704 46.9696 53.9986 45.4463 53.8212C45.2689 53.8001 45.0086 53.9566 44.8812 54.1103C44.1977 54.9344 43.5484 55.7874 42.8794 56.6233C41.6348 58.1795 39.7605 57.9088 39.0205 56.0687C38.851 55.6455 38.6775 55.2236 38.4725 54.7215C38.2845 54.9909 38.1439 55.1986 37.998 55.4023C37.4394 56.1765 36.5877 56.4827 35.6926 56.2356C34.8554 56.0043 34.2679 55.2919 34.1812 54.3719C34.08 53.2836 33.9958 52.194 33.8999 51.1058C33.8828 50.9165 33.8447 50.7285 33.7895 50.3566C33.6541 50.6878 33.5779 50.8481 33.5227 51.0164C32.7893 53.2113 32.0625 55.4076 31.3277 57.6012C31.0636 58.3911 30.5891 58.725 30.0121 58.5501C29.3313 58.3438 29.0697 57.7615 29.33 56.9716C30.1527 54.4849 30.9768 51.9982 31.8193 49.518C32.1663 48.4968 33.0653 47.9119 34.0221 48.0223C35.0631 48.1419 35.782 48.8701 35.9056 49.9675C36.0028 50.8363 36.0659 51.709 36.1448 52.5791C36.1842 53.0142 36.2263 53.4479 36.2802 54.0328C36.4799 53.7463 36.6022 53.5636 36.7323 53.3861C37.6996 52.0547 39.6199 52.2085 40.3428 53.6871C40.6069 54.2273 40.8107 54.7977 41.0748 55.4325C41.828 54.5086 42.543 53.6569 43.2146 52.7736C43.3118 52.6448 43.2632 52.332 43.1791 52.1507C42.7388 51.1964 42.6652 50.2278 43.1936 49.3143C44.5263 47.009 45.2728 44.4657 46.2494 42.0145C46.4347 41.5505 46.6411 41.0892 46.8895 40.6568C49.6325 35.8844 52.3873 31.1187 55.1369 26.3503C55.2237 26.1991 55.3012 26.0427 55.3998 25.8587C54.7742 25.3146 53.515 25.103 54.1814 23.832C54.5073 23.2116 54.9989 23.2603 56.5012 23.9739C56.9914 23.1407 57.4869 22.2995 57.9811 21.4583C58.2913 20.9313 58.6238 20.416 58.9038 19.8719C59.2652 19.1701 59.7476 18.7613 60.5599 19.0294C62.2685 16.5874 63.7616 16.0025 65.4899 17.075C67.1644 18.1146 67.3707 19.8482 66.0787 22.2272L66.0801 22.2285ZM60.9252 28.9802C59.7108 28.2771 58.5305 27.5949 57.295 26.8799C54.4876 31.7456 51.7118 36.5574 48.9017 41.4257C50.1346 42.1394 51.3109 42.8215 52.5293 43.5273C55.3367 38.6616 58.1165 33.8459 60.9239 28.9802H60.9252ZM64.0691 23.5323C62.8415 22.82 61.6652 22.1378 60.4468 21.4307C59.7371 22.6596 59.0536 23.8425 58.3491 25.0635C59.5859 25.7772 60.7649 26.4567 61.9793 27.1573C62.6904 25.9231 63.3633 24.7573 64.0691 23.5323ZM48.6126 48.5389C49.5326 47.4269 50.4066 46.3689 51.3319 45.2517C50.2147 44.6077 49.1462 43.99 48.0264 43.3446C47.5203 44.7036 47.0354 46.0022 46.5412 47.3284C47.2443 47.7397 47.8989 48.1222 48.6126 48.5389ZM64.2374 21.1941C64.491 20.5514 65.1745 20.0638 64.7526 19.3225C64.5896 19.036 64.1598 18.7534 63.8365 18.735C62.948 18.6837 62.8074 19.5197 62.4091 20.1321C63.0124 20.4831 63.5894 20.8182 64.2374 21.1941ZM47.4743 50.3211C46.8605 49.9689 46.2849 49.639 45.7144 49.3117C44.8851 50.4736 44.8378 51.1938 45.5331 51.6078C46.2323 52.0245 46.7804 51.6762 47.4743 50.3211Z" fill="#0987ED"/>
        <path d="M15.5794 12.3999V14.5002C15.837 14.5002 16.0894 14.5002 16.3417 14.5002C24.6483 14.5002 32.9549 14.5002 41.2615 14.5002C41.4797 14.5002 41.7031 14.4779 41.916 14.516C42.4812 14.6172 42.8229 14.9668 42.8269 15.5451C42.8308 16.1261 42.4891 16.4744 41.9252 16.5821C41.7347 16.6189 41.5336 16.5992 41.3364 16.5992C32.5488 16.5992 23.7611 16.5992 14.9735 16.5992C13.7564 16.5992 13.4502 16.2982 13.4489 15.1074C13.4475 13.9482 13.4449 12.7903 13.4489 11.631C13.4515 10.6795 13.8142 10.3009 14.7409 10.3009C23.681 10.2983 32.6224 10.2996 41.5625 10.3009C42.3471 10.3009 42.8164 10.6873 42.8361 11.3169C42.8571 11.9728 42.3708 12.3973 41.5612 12.3973C33.1678 12.3999 24.7732 12.3986 16.3798 12.3986H15.582L15.5794 12.3999Z" fill="#0987ED"/>
        <path d="M17.1262 62.8335C12.4629 62.802 8.53435 59.1534 8.21628 54.5243C7.89427 49.8427 11.1906 45.7446 15.8289 45.0545C18.1172 44.7141 20.2096 45.2267 22.1272 46.4924C22.9132 47.0116 23.0985 47.5991 22.695 48.1735C22.3059 48.7255 21.7395 48.7399 20.9706 48.2431C18.6574 46.7513 16.2363 46.5884 13.8364 47.9172C11.4114 49.2591 10.239 51.4212 10.3153 54.1997C10.4073 57.5828 13.2278 60.4507 16.6293 60.6793C20.1373 60.9146 23.2759 58.4608 23.8266 55.0461C23.8818 54.7018 23.916 54.3535 23.9397 54.0052C23.9896 53.2691 24.3747 52.8288 24.9898 52.8262C25.6299 52.8249 26.04 53.3046 26.0426 54.063C26.0584 58.1926 22.7265 62.0568 18.6219 62.664C18.1264 62.7376 17.6256 62.777 17.1262 62.8309V62.8335Z" fill="#0987ED"/>
        <path d="M33.4582 26.0493C37.1318 26.0493 40.8054 26.0493 44.4789 26.0493C44.6761 26.0493 44.8772 26.0296 45.0678 26.065C45.6342 26.1689 45.9733 26.5185 45.9733 27.0981C45.9733 27.6777 45.629 28.0234 45.0665 28.1325C44.8969 28.1654 44.7181 28.1483 44.5433 28.1483C37.1305 28.1483 29.7176 28.1483 22.3035 28.1483C22.1063 28.1483 21.9052 28.168 21.7147 28.1312C21.1521 28.0234 20.8078 27.6804 20.8091 27.0968C20.8104 26.5159 21.1508 26.1676 21.716 26.065C21.9289 26.0269 22.1523 26.048 22.3705 26.048C26.0664 26.048 29.7623 26.048 33.4569 26.048L33.4582 26.0493Z" fill="#0987ED"/>
        <path d="M28.1444 18.6995C31.4907 18.6995 34.8357 18.6995 38.1819 18.6995C38.3791 18.6995 38.5802 18.6798 38.7708 18.7153C39.3346 18.8204 39.6777 19.1674 39.6777 19.7484C39.6777 20.328 39.3346 20.6776 38.7708 20.7814C38.5592 20.8209 38.3344 20.7998 38.1162 20.7998C31.4473 20.7998 24.777 20.7998 18.1081 20.7998C17.8899 20.7998 17.6626 20.8222 17.4549 20.7722C16.9278 20.6474 16.6124 20.3004 16.6111 19.7497C16.6111 19.1977 16.9278 18.852 17.4549 18.7284C17.6639 18.6798 17.8899 18.7022 18.1081 18.7022C21.4544 18.7022 24.7994 18.7022 28.1457 18.7022L28.1444 18.6995Z" fill="#0987ED"/>
        <path d="M22.8961 34.4492C19.5498 34.4492 16.2048 34.4492 12.8585 34.4492C12.6614 34.4492 12.4603 34.4689 12.2697 34.4334C11.7045 34.3283 11.3628 33.9826 11.3628 33.4003C11.3628 32.8194 11.7032 32.4724 12.2684 32.366C12.4589 32.3305 12.6614 32.3502 12.8572 32.3502C19.5485 32.3502 26.2397 32.3502 32.931 32.3502C33.1282 32.3502 33.3293 32.3305 33.5198 32.366C34.0863 32.4698 34.4267 32.8181 34.4267 33.3977C34.4267 33.9773 34.085 34.3256 33.5212 34.4321C33.3306 34.4689 33.1282 34.4492 32.9323 34.4492C29.586 34.4492 26.2411 34.4492 22.8948 34.4492H22.8961Z" fill="#0987ED"/>
        <path d="M17.6219 39.6986C15.9605 39.6986 14.2979 39.7026 12.6366 39.6973C11.8204 39.6947 11.3393 39.282 11.3551 38.6235C11.3709 37.9874 11.8348 37.6023 12.6221 37.6009C15.9671 37.597 19.3134 37.597 22.6584 37.6009C23.4772 37.6009 23.957 38.0137 23.9399 38.6734C23.9241 39.3043 23.4522 39.6947 22.6728 39.6973C20.9892 39.7026 19.3055 39.6986 17.6219 39.6986Z" fill="#0987ED"/>
        <path d="M16.8293 54.8148C18.0004 53.6319 19.0755 52.5463 20.1493 51.4619C20.2873 51.3226 20.4188 51.1715 20.5726 51.0519C21.0181 50.7036 21.6451 50.7325 21.9986 51.1347C22.3824 51.571 22.431 52.1033 22.042 52.5068C20.7539 53.8461 19.4541 55.1776 18.0858 56.4314C17.3432 57.1123 16.1932 57.0071 15.444 56.3079C14.6607 55.5771 13.9102 54.8109 13.1689 54.0367C12.7207 53.5701 12.7247 52.9879 13.1216 52.5633C13.5264 52.1309 14.1691 52.1033 14.6436 52.566C15.3638 53.2665 16.0447 54.0065 16.8254 54.8161L16.8293 54.8148Z" fill="#0987ED"/>
        <path d="M41.2627 32.3489C42.397 32.3489 43.5299 32.3463 44.6642 32.3489C45.4936 32.3515 45.972 32.7287 45.9851 33.3793C45.9983 34.0339 45.5146 34.4453 44.7023 34.4466C42.4128 34.4518 40.1245 34.4505 37.8349 34.4466C37.0214 34.4453 36.5403 34.0391 36.5482 33.3833C36.5561 32.7287 37.0292 32.3528 37.8625 32.3489C38.9968 32.3449 40.1298 32.3489 41.264 32.3489H41.2627Z" fill="#0987ED"/>
        <path d="M30.773 37.5996C31.9283 37.5996 33.0836 37.5944 34.2389 37.601C35.0091 37.6049 35.4783 38.0045 35.4862 38.638C35.4941 39.2728 35.0236 39.6947 34.2626 39.6973C31.9296 39.7039 29.5967 39.7052 27.2637 39.6973C26.508 39.6947 26.0375 39.2649 26.0493 38.6274C26.0611 38.0137 26.5146 37.6088 27.2401 37.6023C28.4177 37.5918 29.5941 37.5996 30.7717 37.5996H30.773Z" fill="#0987ED"/>
    </g>
    <defs>
        <clipPath id="clip0_2069_4">
            <rect width="62.9185" height="63" fill="white" transform="translate(4 4)"/>
        </clipPath>
    </defs>
</svg>
