<svg width="70" height="70" viewBox="0 0 70 70" fill="none" xmlns="http://www.w3.org/2000/svg">
    <g clip-path="url(#clip0_2069_5)">
        <path d="M69 44.2611C68.9601 44.3369 68.9069 44.4101 68.8829 44.4913C68.328 46.3145 67.0065 47.314 65.1047 47.314C57.5137 47.318 49.9226 47.3153 42.3316 47.3167C40.5629 47.3167 38.7929 47.3167 36.9244 47.3167C37.0415 47.5429 37.1174 47.7119 37.2119 47.8689C38.8248 50.5625 40.4365 53.2561 42.0561 55.9471C42.3382 56.4155 42.6084 56.876 42.2717 57.4243C41.9576 57.9367 41.4519 57.9473 40.9262 57.946C36.9643 57.9407 33.0038 57.9407 29.0419 57.946C28.5149 57.946 28.0145 57.9207 27.7098 57.4017C27.3997 56.8747 27.6485 56.4342 27.92 55.9843C29.5184 53.3333 31.1087 50.677 32.699 48.022C32.8201 47.8197 32.9266 47.6081 33.085 47.3167C32.7589 47.3167 32.5234 47.3167 32.2878 47.3167C23.2369 47.3167 14.1846 47.3167 5.1336 47.3167C2.48392 47.3167 0.990728 45.8155 1.00004 43.1525C1.00137 42.6468 1.01335 42.1278 1.12514 41.6393C1.49112 40.0344 2.91644 38.8752 4.56267 38.826C5.57942 38.7954 6.59884 38.798 7.61559 38.8326C7.82586 38.8393 8.11199 39.003 8.21979 39.18C8.53785 39.7056 8.78273 40.2739 9.1141 40.942C8.49793 40.942 7.96027 40.942 7.42262 40.942C6.53762 40.942 5.65129 40.9273 4.76762 40.9473C3.79079 40.9699 3.16131 41.6061 3.12271 42.5776C3.1134 42.8211 3.11872 43.0647 3.12005 43.3082C3.12804 44.5778 3.72691 45.1887 4.98321 45.1913C7.042 45.1953 9.09946 45.1913 11.1583 45.1913C29.0406 45.1913 46.9216 45.19 64.8039 45.198C65.6078 45.198 66.3836 45.0968 66.6884 44.2784C67.0158 43.4 67.1249 42.4112 66.5234 41.6167C66.2505 41.2574 65.6464 41.0192 65.1673 40.9713C64.1838 40.8741 63.183 40.942 62.141 40.942V38.8672C63.3946 38.8672 64.6602 38.7514 65.8952 38.8965C67.3804 39.0722 68.3439 40.033 68.839 41.445C68.8896 41.5874 68.9468 41.7285 69 41.8696V44.2597V44.2611ZM30.5351 55.7608H39.4636C37.9598 53.2588 36.5025 50.8327 34.996 48.3254C33.4749 50.8593 32.0243 53.2774 30.5351 55.7608Z" fill="#0987ED"/>
        <path d="M10.0271 29.2068C10.0271 28.9206 10.0271 28.6598 10.0271 28.4003C10.0271 22.4249 10.0271 16.4481 10.0271 10.4727C10.0271 8.8025 10.8349 8.00267 12.5184 8.00001C13.0055 8.00001 13.4926 7.99868 13.9797 8.00001C15.5594 8.00533 16.4018 8.83976 16.4031 10.4101C16.4045 15.8106 16.4031 21.2111 16.4031 26.6116C16.4031 27.4687 16.4031 28.3271 16.4031 29.252C17.2522 29.252 18.0427 29.244 18.8332 29.2533C19.9405 29.2666 20.4023 29.9893 19.9099 30.9808C18.0321 34.7616 16.1383 38.5359 14.2538 42.3141C14.0303 42.7626 13.6896 43.1592 13.1865 43.0314C12.8126 42.9369 12.3694 42.6308 12.1977 42.2968C10.2773 38.5385 8.3982 34.7576 6.51907 30.9781C6.02933 29.992 6.49378 29.2706 7.60236 29.2547C8.35428 29.244 9.10753 29.2454 9.85945 29.24C9.88074 29.24 9.90204 29.232 10.0271 29.2068ZM9.09023 31.3787C10.4809 34.1588 11.8171 36.8284 13.2171 39.6245C14.6265 36.8045 15.9626 34.1295 17.3374 31.3787C16.7598 31.3787 16.2967 31.3787 15.8335 31.3787C14.5693 31.376 14.2778 31.0832 14.2778 29.8136C14.2778 23.5281 14.2778 17.2439 14.2778 10.9584C14.2778 10.7003 14.2778 10.4421 14.2778 10.1719H12.1525C12.1525 10.5006 12.1525 10.7854 12.1525 11.0702C12.1525 17.3557 12.1525 23.6399 12.1525 29.9254C12.1525 31.0446 11.8131 31.3773 10.6819 31.3787C10.1961 31.3787 9.7104 31.3787 9.09023 31.3787Z" fill="#0987ED"/>
        <path d="M53.5931 21.814C52.7148 21.814 51.9216 21.8233 51.1284 21.8113C50.0718 21.7954 49.602 21.0594 50.0718 20.1132C51.9589 16.3137 53.8486 12.5142 55.7823 8.73727C55.95 8.40856 56.4411 8.05722 56.7805 8.05722C57.1212 8.05722 57.6109 8.40989 57.7799 8.7386C59.7136 12.5168 61.6034 16.3163 63.4905 20.1185C63.9656 21.0754 63.5011 21.794 62.4285 21.8127C61.654 21.826 60.8794 21.826 60.1062 21.834C60.0876 21.834 60.0689 21.8526 59.9678 21.9098C59.9678 22.1201 59.9678 22.3769 59.9678 22.6338C59.9678 28.5866 59.9678 34.5407 59.9678 40.4935C59.9678 42.2954 59.1906 43.0673 57.374 43.0673C56.8869 43.0673 56.3998 43.07 55.9128 43.0673C54.4675 43.0567 53.5945 42.1956 53.5931 40.7557C53.5878 36.6394 53.5918 32.5232 53.5918 28.4069C53.5918 26.2403 53.5918 24.0751 53.5918 21.8167L53.5931 21.814ZM60.9047 19.6887C59.5206 16.9205 58.1845 14.2482 56.7805 11.4428C55.3751 14.2536 54.039 16.9259 52.6576 19.6887C53.2271 19.6887 53.685 19.6887 54.1441 19.6887C55.4177 19.6887 55.7185 19.9828 55.7185 21.2364C55.7185 27.5432 55.7185 33.8513 55.7185 40.1581C55.7185 40.4123 55.7185 40.6652 55.7185 40.9007H57.8438C57.8438 40.5787 57.8438 40.2952 57.8438 40.0117C57.8438 33.7049 57.8438 27.3968 57.8438 21.09C57.8438 20.0427 58.1925 19.694 59.2292 19.6887C59.7522 19.686 60.2752 19.6887 60.9047 19.6887Z" fill="#0987ED"/>
        <path d="M51.4346 38.8153V40.8928H17.3401C17.6568 40.2553 17.927 39.6298 18.2797 39.0562C18.3768 38.8978 18.7215 38.8246 18.9544 38.8246C23.5803 38.8113 28.205 38.814 32.8309 38.814C38.7851 38.814 44.7379 38.814 50.692 38.814C50.9289 38.814 51.1671 38.814 51.4359 38.814L51.4346 38.8153Z" fill="#0987ED"/>
        <path d="M26.4988 35.2554C26.1475 34.9879 25.7522 34.8282 25.6138 34.5434C25.4741 34.2559 25.5326 33.8301 25.6138 33.4907C25.663 33.2831 25.9119 33.1181 26.0822 32.9464C31.5094 27.5153 36.9391 22.0868 42.3676 16.657C42.4927 16.5319 42.6111 16.3989 42.7469 16.2857C43.2433 15.8719 43.8235 15.8838 44.2387 16.3084C44.6367 16.7156 44.6513 17.2666 44.268 17.751C44.1722 17.8721 44.0577 17.9772 43.9486 18.0877C38.4723 23.564 32.9986 29.0417 27.5142 34.5101C27.2454 34.7776 26.898 34.9653 26.4988 35.254V35.2554Z" fill="#0987ED"/>
        <path d="M33.9488 19.5689C33.8783 21.2431 33.3712 22.5713 32.1602 23.5601C30.2957 25.0825 27.7418 24.6553 26.3205 22.5992C25.0282 20.7321 25.1467 18.085 26.6399 16.3736C27.6952 15.1639 29.0301 14.6236 30.6244 15.0441C32.3811 15.5086 33.3379 16.7742 33.7851 18.467C33.8916 18.8689 33.9102 19.2948 33.9488 19.5689ZM31.8088 19.6634C31.7995 18.2301 30.8586 17.0523 29.7088 17.035C28.5337 17.0177 27.5621 18.2141 27.5608 19.6794C27.5608 21.1473 28.5203 22.3477 29.6915 22.3424C30.8613 22.337 31.8168 21.1273 31.8075 19.6634H31.8088Z" fill="#0987ED"/>
        <path d="M44.0431 31.7912C43.9778 33.4508 43.4735 34.759 42.2997 35.7451C40.4538 37.2942 37.8853 36.9003 36.4467 34.8668C35.1212 32.9943 35.229 30.3113 36.7408 28.5866C37.7988 27.3795 39.135 26.8405 40.728 27.2664C42.4833 27.7362 43.4375 29.0018 43.8807 30.6973C43.9858 31.0992 44.0045 31.5251 44.0417 31.7912H44.0431ZM41.9031 31.9296C41.9124 30.4657 40.9555 29.2587 39.7844 29.256C38.6093 29.2533 37.6524 30.4498 37.6551 31.919C37.6577 33.3496 38.5946 34.5354 39.7405 34.5607C40.9156 34.586 41.8938 33.3962 41.9031 31.9296Z" fill="#0987ED"/>
    </g>
    <defs>
        <clipPath id="clip0_2069_5">
            <rect width="68" height="49.946" fill="white" transform="translate(1 8)"/>
        </clipPath>
    </defs>
</svg>
