<svg width="70" height="70" viewBox="0 0 70 70" fill="none" xmlns="http://www.w3.org/2000/svg">
    <g clip-path="url(#clip0_2034_317)">
        <path d="M56.0273 9.48075C56.0273 7.75188 56.0075 6.18223 56.0343 4.61258C56.0554 3.37405 57.0714 2.63995 58.1084 3.07534C58.7129 3.32896 59.0313 3.81789 59.0355 4.44914C59.0524 7.2855 59.0651 10.1233 59.0285 12.9596C59.0172 13.867 58.3902 14.4349 57.4757 14.4419C54.6859 14.4616 51.8974 14.4631 49.1076 14.4419C48.2044 14.4349 47.5661 13.7698 47.5661 12.9427C47.5661 12.1156 48.1931 11.4816 49.1118 11.459C50.3066 11.4294 51.5029 11.4506 52.6977 11.4449C52.9232 11.4449 53.1486 11.4238 53.4417 11.2434C52.3779 10.5389 51.3409 9.78933 50.2446 9.13836C32.5572 -1.35322 9.51826 8.93546 5.64063 29.138C3.68914 39.3083 6.3846 48.243 13.4438 55.8446C13.7397 56.1631 14.0398 56.528 14.1835 56.9268C14.4146 57.5693 14.0567 58.2766 13.4649 58.5964C12.8407 58.9346 12.1405 58.8599 11.6205 58.2442C10.203 56.5632 8.67285 54.9457 7.47659 53.1153C-0.492843 40.9245 0.284938 25.4154 9.47881 14.1348C14.8838 7.50249 21.8979 3.53045 30.3915 2.34969C39.6756 1.05762 48.0353 3.3656 55.4608 9.07918C55.6032 9.18909 55.7539 9.28631 56.0287 9.48075H56.0273Z" fill="#0987ED"/>
        <path d="M15.1546 40.2422C16.8581 40.2422 18.5602 40.2408 20.2638 40.2422C21.6333 40.2437 22.366 40.7861 22.3463 41.7767C22.328 42.7447 21.6094 43.266 20.2863 43.266C17.8501 43.266 15.4139 43.2702 12.9777 43.266C11.439 43.2632 10.8642 42.5714 11.1009 41.0397C11.2657 39.9745 11.773 39.0643 12.5649 38.3852C13.6808 37.4284 14.8926 36.583 16.062 35.6869C16.8229 35.1035 17.6261 34.5653 18.3263 33.9157C19.3902 32.9308 19.617 31.7585 19.0379 30.837C18.4616 29.9226 17.054 29.5125 15.8239 29.8944C14.9221 30.1748 14.3008 30.7666 13.8513 31.5824C13.4934 32.2334 12.9143 32.4884 12.1915 32.3348C11.5194 32.1925 11.122 31.7318 11.0628 31.0667C11.0332 30.7398 11.1361 30.3636 11.2869 30.0649C12.8128 27.0397 16.775 25.8435 19.7382 27.4962C22.2772 28.9123 23.1072 32.0657 21.6051 34.609C20.8851 35.8278 19.8213 36.7084 18.6913 37.5144C17.495 38.3668 16.2833 39.1982 15.0771 40.0379C15.1025 40.1056 15.1293 40.1746 15.1546 40.2422Z" fill="#0987ED"/>
        <path d="M33.803 38.3753C33.803 39.7561 33.8073 41.0398 33.803 42.3248C33.7974 43.4365 33.1915 44.1438 32.2813 44.1171C31.3866 44.0903 30.8187 43.4041 30.8159 42.3304C30.8117 41.0454 30.8159 39.759 30.8159 38.4105C30.5552 38.3979 30.3298 38.3795 30.1058 38.3795C28.3727 38.3767 26.6396 38.3711 24.9065 38.3795C24.209 38.3838 23.6722 38.1344 23.365 37.4918C23.0649 36.8648 23.2452 36.3125 23.6567 35.7996C26.1196 32.7322 28.577 29.6605 31.0428 26.5945C31.5641 25.9463 32.177 25.7477 32.8336 26.0069C33.5283 26.2817 33.8087 26.8241 33.8059 27.5554C33.7988 29.8747 33.8044 32.1939 33.8059 34.5118C33.8059 34.7654 33.8059 35.019 33.8059 35.391C34.2511 35.391 34.64 35.3755 35.0261 35.3938C35.8954 35.4347 36.5112 36.0335 36.5337 36.8409C36.5563 37.6694 35.918 38.326 35.0275 38.3697C34.6555 38.388 34.2807 38.3725 33.8044 38.3725L33.803 38.3753ZM30.7736 31.7261C29.762 32.9914 28.8531 34.1271 27.8739 35.3515H30.7736V31.7261Z" fill="#0987ED"/>
        <path d="M55.2497 29.7606C53.6025 29.7606 52.0583 29.7634 50.5154 29.7577C50.235 29.7577 49.9489 29.7577 49.677 29.7042C48.9345 29.5605 48.423 28.9236 48.4441 28.2106C48.4638 27.5118 48.957 26.9327 49.677 26.7875C49.8813 26.7467 50.0955 26.7368 50.3054 26.7368C52.6021 26.734 54.9003 26.7298 57.197 26.7368C58.7215 26.7424 59.3852 27.7118 58.8075 29.1025C57.0039 33.4466 55.1919 37.7892 53.3771 42.129C53.0305 42.9589 52.4218 43.3449 51.7088 43.2336C51.0269 43.1265 50.4717 42.6108 50.4449 41.9246C50.4294 41.5456 50.5506 41.1384 50.6985 40.7805C52.109 37.3622 53.5391 33.9524 54.9608 30.5383C55.0496 30.3256 55.1215 30.1058 55.2497 29.7591V29.7606Z" fill="#0987ED"/>
        <path d="M39.0558 43.2773C39.2967 42.043 39.5659 40.641 39.8448 39.2418C40.6818 35.043 41.5244 30.8441 42.3628 26.6452C42.5882 25.5152 43.2519 24.9346 44.1452 25.0896C45.0413 25.246 45.5486 26.0125 45.3584 26.9693C44.4749 31.4218 43.5816 35.8729 42.6925 40.324C42.4684 41.4484 42.267 42.5784 42.0162 43.6972C41.8302 44.5299 41.1411 45.0217 40.3831 44.9315C39.6208 44.8399 39.0671 44.2227 39.053 43.2787L39.0558 43.2773Z" fill="#0987ED"/>
        <path d="M64.2041 48.9387C62.9838 48.95 62.2455 48.0017 62.5668 47.0281C62.8965 46.0305 63.2685 45.0442 63.6644 44.0706C63.9871 43.2773 64.8099 42.9377 65.5708 43.2266C66.3021 43.5041 66.7135 44.2777 66.4599 45.0527C66.1344 46.0516 65.7582 47.0351 65.3679 48.0116C65.1312 48.6048 64.6564 48.9204 64.2027 48.9373L64.2041 48.9387Z" fill="#0987ED"/>
        <path d="M44.6877 66.66C43.9409 66.5177 43.3449 66.0612 43.1857 65.406C43.018 64.7226 43.2716 64.0012 43.9001 63.7349C44.9526 63.2882 46.0319 62.8951 47.1197 62.54C47.7664 62.3301 48.4625 62.7035 48.7654 63.3051C49.0712 63.9152 48.9937 64.7733 48.4061 65.0735C47.2084 65.6822 45.9333 66.1401 44.6891 66.6586L44.6877 66.66Z" fill="#0987ED"/>
        <path d="M62.6104 52.5965C62.5836 53.473 60.4814 56.3107 59.7797 56.5094C59.1428 56.6912 58.5637 56.5601 58.141 56.0219C57.7225 55.4893 57.6591 54.8763 58.0395 54.324C58.6623 53.4208 59.326 52.543 60.022 51.6962C60.4447 51.1819 61.0337 51.0424 61.672 51.3073C62.3018 51.568 62.5963 52.0597 62.609 52.5979L62.6104 52.5965Z" fill="#0987ED"/>
        <path d="M27.0453 63.9589C28.0598 64.1858 29.256 64.3999 30.4185 64.7325C31.1131 64.9311 31.433 65.7385 31.2526 66.4585C31.0821 67.1377 30.4495 67.6703 29.7478 67.5576C28.5994 67.3716 27.4553 67.125 26.3351 66.815C25.6334 66.6206 25.2741 65.8851 25.3995 65.2059C25.5376 64.4619 26.1195 63.9688 27.0453 63.9589Z" fill="#0987ED"/>
        <path d="M68 36.7549C67.9366 37.4538 67.8845 38.1541 67.807 38.8516C67.7069 39.7519 67.0489 40.3099 66.1894 40.2465C65.368 40.1845 64.81 39.5603 64.8424 38.6684C64.8776 37.6863 64.9396 36.7056 65.0326 35.7278C65.12 34.8147 65.778 34.2483 66.6234 34.2934C67.459 34.3385 68.0324 34.9937 68.0268 35.9123C68.0254 36.1927 67.9916 36.4731 67.9718 36.7535C67.9817 36.7535 67.9916 36.7549 68.0014 36.7563L68 36.7549Z" fill="#0987ED"/>
        <path d="M56.7898 59.2951C56.4516 59.7981 56.2656 60.2447 55.9373 60.5265C55.2117 61.1522 54.4283 61.7158 53.642 62.2653C52.8558 62.8148 51.9639 62.6725 51.4679 61.9694C50.9677 61.2621 51.141 60.4138 51.9188 59.8206C52.6628 59.2514 53.4124 58.6878 54.1662 58.1326C54.6847 57.7508 55.2892 57.631 55.8007 58.0241C56.1881 58.3228 56.4277 58.8132 56.7912 59.2951H56.7898Z" fill="#0987ED"/>
        <path d="M60.4729 18.6518C60.4969 17.9515 60.8209 17.4739 61.4536 17.2329C62.0961 16.9878 62.7287 17.1202 63.0852 17.6782C63.7235 18.6814 64.2984 19.7325 64.8042 20.809C65.103 21.4445 64.7338 22.2166 64.1335 22.559C63.5164 22.9113 62.6823 22.8352 62.299 22.2336C61.6494 21.2106 61.1084 20.1186 60.5335 19.0478C60.4715 18.9322 60.4912 18.773 60.4743 18.6518H60.4729Z" fill="#0987ED"/>
        <path d="M63.9998 27.0552C63.9871 26.2014 64.4549 25.5856 65.1312 25.4363C65.8709 25.2728 66.629 25.5898 66.8347 26.3141C67.1588 27.4554 67.411 28.6249 67.5857 29.7986C67.6928 30.5158 67.0912 31.1343 66.3571 31.2753C65.685 31.4049 64.9255 31.0301 64.7381 30.3453C64.4323 29.2209 64.2238 28.0711 63.9998 27.0552Z" fill="#0987ED"/>
        <path d="M21.102 64.8353C20.9978 64.8043 20.7357 64.7677 20.5159 64.6522C19.6479 64.197 18.7785 63.7419 17.9374 63.2389C17.1455 62.7655 16.9215 61.9172 17.3357 61.186C17.7443 60.4645 18.6109 60.2208 19.4056 60.6364C20.2735 61.0901 21.1372 61.5565 21.9841 62.0483C22.6336 62.4245 22.8816 63.1093 22.6703 63.7926C22.4744 64.4281 21.9207 64.8339 21.102 64.8353Z" fill="#0987ED"/>
        <path d="M36.6492 67.9873C36.3858 67.9873 36.0081 68.0211 35.6404 67.9803C34.8697 67.8957 34.3497 67.3279 34.3145 66.591C34.2793 65.8329 34.7118 65.1693 35.4755 65.0721C36.6309 64.9255 37.8004 64.8508 38.9657 64.8367C39.6913 64.8283 40.2338 65.5032 40.2549 66.2458C40.2761 67.0151 39.7632 67.6647 38.9939 67.7689C38.2541 67.869 37.5059 67.9098 36.6507 67.9873H36.6492Z" fill="#0987ED"/>
    </g>
    <defs>
        <clipPath id="clip0_2034_317">
            <rect width="66.0254" height="66" fill="white" transform="translate(2 2)"/>
        </clipPath>
    </defs>
</svg>
