<svg width="42" height="42" viewBox="0 0 42 42" fill="none" xmlns="http://www.w3.org/2000/svg">
    <path d="M30 0H12C5.37258 0 0 5.37258 0 12V30C0 36.6274 5.37258 42 12 42H30C36.6274 42 42 36.6274 42 30V12C42 5.37258 36.6274 0 30 0Z" fill="#0987ED" fill-opacity="0.1"/>
    <path d="M25.2462 16.729H22.4378V14.867C22.4378 14.1678 22.8963 14.0047 23.2192 14.0047C23.5413 14.0047 25.201 14.0047 25.201 14.0047V10.9307L22.4716 10.9199C19.4418 10.9199 18.7522 13.2126 18.7522 14.6799V16.729H17V19.8966H18.7522C18.7522 23.9618 18.7522 28.8599 18.7522 28.8599H22.4378C22.4378 28.8599 22.4378 23.9135 22.4378 19.8966H24.9248L25.2462 16.729Z" fill="#0987ED"/>
</svg>
