<svg width="42" height="42" viewBox="0 0 42 42" fill="none" xmlns="http://www.w3.org/2000/svg">
    <path d="M30 0H12C5.37258 0 0 5.37258 0 12V30C0 36.6274 5.37258 42 12 42H30C36.6274 42 42 36.6274 42 30V12C42 5.37258 36.6274 0 30 0Z" fill="#0987ED" fill-opacity="0.1"/>
    <path d="M14.2596 17.606H17.3635V27.2379H14.2596V17.606ZM15.8173 12.8179C16.8096 12.8179 17.6173 13.5973 17.6173 14.555C17.6173 15.5126 16.8096 16.292 15.8173 16.292C14.8193 16.292 14.0173 15.5126 14.0173 14.555C14.0173 13.5973 14.8193 12.8179 15.8173 12.8179Z" fill="#0987ED"/>
    <path fill-rule="evenodd" clip-rule="evenodd" d="M19.3135 17.6054H22.2846V18.9249H22.325C22.7404 18.1677 23.75 17.3716 25.2616 17.3716C28.4 17.3716 28.9827 19.3648 28.9827 21.9593V27.2373H25.8846V22.555C25.8846 21.4359 25.8673 19.9995 24.275 19.9995C22.6596 19.9995 22.4173 21.2188 22.4173 22.4715V27.2373H19.3192V17.6054H19.3135Z" fill="#0987ED"/>
</svg>
