<svg width="42" height="42" viewBox="0 0 42 42" fill="none" xmlns="http://www.w3.org/2000/svg">
    <path d="M30 0H12C5.37258 0 0 5.37258 0 12V30C0 36.6274 5.37258 42 12 42H30C36.6274 42 42 36.6274 42 30V12C42 5.37258 36.6274 0 30 0Z" fill="#0987ED" fill-opacity="0.1"/>
    <path d="M27.6883 15.1926C27.6883 15.3499 27.6573 15.5058 27.5971 15.6511C27.5369 15.7965 27.4485 15.9286 27.3374 16.0399C27.2261 16.1512 27.0939 16.2395 26.9485 16.2997C26.8031 16.3599 26.6473 16.3909 26.49 16.3909C26.3326 16.3909 26.1768 16.3599 26.0313 16.2997C25.886 16.2395 25.7539 16.1512 25.6426 16.0399C25.5313 15.9286 25.443 15.7965 25.3828 15.6511C25.3225 15.5058 25.2916 15.3499 25.2916 15.1926C25.2916 14.8747 25.4178 14.5699 25.6426 14.3452C25.8674 14.1205 26.1721 13.9942 26.49 13.9942C26.8078 13.9942 27.1126 14.1205 27.3374 14.3452C27.562 14.5699 27.6883 14.8747 27.6883 15.1926ZM31.493 20.602V20.6175L31.4244 24.9606C31.407 26.5268 30.777 28.0241 29.6695 29.1318C28.5621 30.2395 27.0649 30.8698 25.4987 30.8876L21.1401 30.9549H21.1245L16.7815 30.8863C15.2152 30.8689 13.7179 30.2389 12.6102 29.1315C11.5025 28.024 10.8722 26.5268 10.8544 24.9606L10.7871 20.602V20.5864L10.8557 16.2434C10.8732 14.6771 11.5031 13.1798 12.6106 12.0721C13.7181 10.9644 15.2152 10.3341 16.7815 10.3163L21.1401 10.249H21.1556L25.4987 10.3176C27.0649 10.3351 28.5622 10.965 29.6699 12.0725C30.7776 13.18 31.4079 14.6771 31.4257 16.2434L31.493 20.602ZM29.5648 20.602L29.4975 16.2731C29.4853 15.2084 29.057 14.1908 28.3042 13.4379C27.5513 12.685 26.5336 12.2567 25.4689 12.2446L21.1401 12.1773L16.8112 12.2446C15.7465 12.2567 14.7289 12.685 13.976 13.4379C13.2231 14.1908 12.7947 15.2084 12.7826 16.2731L12.7153 20.602L12.7826 24.9308C12.7947 25.9955 13.2231 27.0132 13.976 27.7661C14.7289 28.519 15.7465 28.9472 16.8112 28.9594L21.1401 29.0267L25.4689 28.9594C26.5336 28.9472 27.5513 28.519 28.3042 27.7661C29.057 27.0132 29.4853 25.9955 29.4975 24.9308L29.5648 20.602ZM26.4563 20.602C26.4563 22.0119 25.8962 23.3641 24.8992 24.3611C23.9022 25.3581 22.55 25.9182 21.1401 25.9182C19.7301 25.9182 18.3779 25.3581 17.3809 24.3611C16.3839 23.3641 15.8238 22.0119 15.8238 20.602C15.8238 19.192 16.3839 17.8398 17.3809 16.8428C18.3779 15.8458 19.7301 15.2857 21.1401 15.2857C22.55 15.2857 23.9022 15.8458 24.8992 16.8428C25.8962 17.8398 26.4563 19.192 26.4563 20.602ZM24.5281 20.602C24.5281 19.7034 24.1712 18.8417 23.5358 18.2063C22.9004 17.5709 22.0386 17.214 21.1401 17.214C20.2415 17.214 19.3797 17.5709 18.7444 18.2063C18.109 18.8417 17.7521 19.7034 17.7521 20.602C17.7521 21.5005 18.109 22.3622 18.7444 22.9977C19.3797 23.6331 20.2415 23.99 21.1401 23.99C22.0386 23.99 22.9004 23.6331 23.5358 22.9977C24.1712 22.3622 24.5281 21.5005 24.5281 20.602Z" fill="#0987ED"/>
</svg>
