<svg width="315" height="200" viewBox="0 0 315 200" fill="none" xmlns="http://www.w3.org/2000/svg">
    <mask id="mask0_2078_1804" style="mask-type:alpha" maskUnits="userSpaceOnUse" x="0" y="0" width="315" height="200">
        <path d="M0 60C0 26.8629 26.8629 0 60 0L255 0C288.137 0 315 26.8629 315 60V140C315 173.137 288.137 200 255 200H60C26.8629 200 0 173.137 0 140V60Z" fill="#0987ED"/>
    </mask>
    <g mask="url(#mask0_2078_1804)">
        <g opacity="0.1">
            <path d="M208.5 -43.0001C218.309 -42.2969 227.417 -40.1872 236.526 -36.671C257.546 -29.6387 275.763 -17.6837 290.477 -0.806061C300.286 10.4457 307.994 23.1039 314.3 36.4653C314.3 37.1686 314.3 37.8718 315 38.575C312.198 37.8718 310.796 37.1686 308.694 37.1686C293.28 32.9492 277.865 32.2459 262.451 34.3556C240.73 37.1686 223.214 47.7171 208.5 63.1882C202.194 69.5173 195.187 75.8465 188.881 82.1756C176.97 93.4273 162.957 100.46 151.045 92.7241C139.134 84.9885 145.44 66.0012 159.453 49.8268C163.657 44.9042 167.861 40.6848 172.065 36.4653L153.848 16.7748C119.516 41.388 80.2785 86.395 114.611 127.886C134.229 151.796 158.052 148.983 167.161 148.983C174.868 148.983 182.575 146.873 189.582 145.467C193.786 144.763 197.99 142.654 202.194 141.247C202.894 141.247 203.595 140.544 204.996 140.544C197.99 151.093 192.384 160.938 192.384 172.893C195.888 171.486 200.792 169.377 203.595 168.673C211.302 165.157 219.71 163.751 228.819 165.157C242.832 167.267 250.539 179.222 247.737 193.287C246.335 200.319 241.431 205.242 235.125 208.054C228.118 212.274 219.71 213.68 211.302 215.087C200.092 216.493 189.582 216.493 178.371 215.087C169.263 213.68 160.855 211.571 152.447 208.758C139.134 203.835 126.522 196.803 115.312 187.661C100.598 175.706 88.6865 160.938 80.2785 144.06C74.6732 132.808 70.4693 120.853 68.3673 108.195C66.2653 94.8338 65.5646 82.1756 67.6666 68.8141C69.068 61.7818 70.4693 54.0462 72.5713 47.0139C76.7752 33.6524 82.3805 21.6974 90.7885 10.4457C101.999 -5.72871 116.713 -18.3869 134.229 -28.2322C143.338 -33.1548 153.147 -37.3742 163.657 -40.1872C177.67 -43.0001 193.085 -43.7033 208.5 -43.0001ZM165.759 -19.0902C159.453 -12.0578 159.453 -0.806061 165.759 6.22628L190.983 32.9492L216.207 6.22628C222.513 -0.806061 222.513 -12.0578 216.207 -19.0902C210.602 -25.4193 200.792 -25.4193 194.486 -19.0902L190.282 -14.8707L186.078 -19.0902C181.174 -25.4193 172.065 -25.4193 165.759 -19.0902Z" fill="white"/>
            <path d="M254.043 99.0538C247.036 99.0538 242.132 94.1312 242.132 87.0989C242.132 80.0665 247.737 75.1439 254.043 75.1439C261.05 75.1439 266.655 80.7698 265.954 87.0989C266.655 93.428 261.05 99.0538 254.043 99.0538Z" fill="white"/>
        </g>
    </g>
</svg>
