<svg width="453" height="437" viewBox="0 0 453 437" fill="none" xmlns="http://www.w3.org/2000/svg">
    <mask id="mask0_2086_3056" style="mask-type:alpha" maskUnits="userSpaceOnUse" x="0" y="0" width="453" height="437">
        <path d="M0 0H393C426.137 0 453 26.8629 453 60V377C453 410.137 426.137 437 393 437H0V0Z" fill="#0987ED"/>
    </mask>
    <g mask="url(#mask0_2086_3056)">
        <g opacity="0.04">
            <path d="M305.075 33.4357C321.923 34.6435 337.568 38.2672 353.213 44.3065C389.317 56.3853 420.606 76.9192 445.879 105.908C462.727 125.234 475.965 146.976 486.797 169.926C486.797 171.133 486.797 172.341 488 173.549C483.186 172.341 480.779 171.133 477.169 171.133C450.693 163.886 424.217 162.678 397.741 166.302C360.434 171.133 330.347 189.252 305.075 215.825C294.244 226.696 282.209 237.567 271.378 248.437C250.919 267.763 226.85 279.842 206.391 266.556C185.932 253.269 196.764 220.656 220.833 192.875C228.053 184.42 235.274 177.173 242.495 169.926L211.205 136.105C152.236 178.381 84.8421 255.685 143.812 326.949C177.508 368.017 218.426 363.186 234.071 363.186C247.309 363.186 260.547 359.562 272.581 357.146C279.802 355.938 287.023 352.315 294.243 349.899C295.447 349.899 296.65 348.691 299.057 348.691C287.023 366.809 277.395 383.719 277.395 404.253C283.412 401.838 291.837 398.214 296.65 397.006C309.888 390.967 324.33 388.551 339.975 390.967C364.044 394.59 377.282 415.124 372.468 439.282C370.061 451.36 361.637 459.816 350.806 464.647C338.771 471.894 324.33 474.31 309.888 476.726C290.633 479.142 272.581 479.142 253.326 476.726C237.681 474.31 223.24 470.686 208.798 465.855C185.932 457.4 164.27 445.321 145.015 429.619C119.742 409.085 99.2836 383.719 84.8421 354.73C75.2145 335.404 67.9938 314.871 64.3834 293.129C60.773 270.179 59.5696 248.437 63.1799 225.488C65.5868 213.409 67.9938 200.122 71.6041 188.044C78.8249 165.094 88.4525 144.56 102.894 125.234C122.149 97.453 147.422 75.7113 177.508 58.801C193.153 50.3459 210.002 43.0987 228.053 38.2672C252.123 33.4357 278.599 32.2278 305.075 33.4357ZM231.664 74.5034C220.833 86.5821 220.833 105.908 231.664 117.987L274.988 163.886L318.313 117.987C329.144 105.908 329.144 86.5821 318.313 74.5034C308.685 63.6325 291.837 63.6325 281.006 74.5034L273.785 81.7507L266.564 74.5034C258.14 63.6325 242.495 63.6325 231.664 74.5034Z" fill="white"/>
            <path d="M383.301 277.428C371.266 277.428 362.842 268.972 362.842 256.894C362.842 244.815 372.469 236.36 383.301 236.36C395.335 236.36 404.963 246.023 403.759 256.894C404.963 267.765 395.335 277.428 383.301 277.428Z" fill="white"/>
        </g>
    </g>
</svg>
