<?xml version="1.0" encoding="UTF-8"?>
<svg width="736px" height="290px" viewBox="0 0 736 290" version="1.1" xmlns="http://www.w3.org/2000/svg" xmlns:xlink="http://www.w3.org/1999/xlink">
    <title>Layer_1</title>
    <g id="SMM" stroke="none" stroke-width="1" fill="none" fill-rule="evenodd">
        <g id="Layer_1" transform="translate(-0.0037, -0.0055)" fill-rule="nonzero">
            <path d="M211.038067,131.422904 C203.4207,131.422904 197.373924,137.46968 197.530983,145.165577 C197.609513,152.782944 203.499229,158.67266 211.038067,158.67266 C218.733963,159.143838 224.70221,152.390296 224.780739,145.087047 C224.859269,137.54821 218.655434,131.422904 211.116596,131.422904 L211.038067,131.422904 Z" id="Path" fill="white"></path>
            <path d="M278.573485,89.4095916 C272.055532,74.0177985 263.338751,60.0395375 252.109025,47.7103971 C235.3037,29.1774218 215.121604,15.8273972 191.405678,7.66032338 C181.039776,4.12649334 170.516816,1.61354754 159.758266,0.671192862 C142.481764,-0.820868709 125.283791,0.0429564112 108.399937,4.59767068 C96.9346214,7.66032338 85.9404835,11.8223899 75.574582,17.5550475 C56.099252,28.2350671 39.9221634,42.6845055 26.9647866,60.824833 C18.0909468,73.3110325 11.1803458,86.8181162 6.78269065,101.503143 C4.42680396,109.356099 3.01327194,117.601702 1.59973993,125.768776 C-0.913205876,140.453803 -0.284969425,155.13883 2.22797638,169.745328 C4.58386307,183.645059 8.98151823,196.995084 15.3424123,209.638342 C24.9230182,228.721025 37.9589245,244.976643 54.6071905,258.248138 C67.250449,268.378451 81.2287101,276.152877 96.5419736,281.571416 C106.04405,284.948187 115.781715,287.304074 125.754969,288.639076 C138.005579,290.288197 150.25619,290.523785 162.506801,288.874665 C171.773289,287.618192 180.725658,285.654953 188.892732,281.021709 C195.646274,277.173761 201.064813,271.912281 202.713934,264.137854 C206.090705,248.117825 196.902747,235.238978 181.353894,232.568973 C171.773289,230.919852 162.428271,232.568973 153.397372,236.338392 C150.25619,237.673394 144.91618,239.636633 141.068232,241.285754 C141.303821,227.857199 147.586185,216.313355 155.439141,204.926569 C154.104138,205.319217 153.397372,205.554805 152.690606,205.790394 C148.057363,207.439515 143.424119,209.716872 138.633816,210.659227 C130.309683,212.386877 121.90702,214.664234 113.425828,214.664234 C103.374045,214.664234 76.9095845,217.883946 54.6071905,191.183897 C21.1535995,151.055293 49.2671806,108.021096 82.485183,79.2792788 L105.729932,102.602557 C105.337284,103.073734 104.944636,103.466382 104.551988,103.85903 C89.0031362,121.842298 81.6998874,142.652631 94.9713824,151.526471 C108.242877,160.400311 124.105848,152.154707 137.377343,139.589978 C145.151769,132.286729 152.297959,125.611717 159.679737,118.465527 C176.79918,101.817261 196.27451,89.8022393 220.383084,86.5825275 C237.816645,84.3051704 255.014618,85.0119364 271.977002,89.8022393 C274.17583,90.4304758 276.374658,90.9801827 279.123192,91.6869487 C278.887603,90.5090053 278.809074,89.8022393 278.573485,89.1740029 L278.573485,89.4095916 Z M172.872702,63.7304266 L139.57617,98.2049019 L106.279639,63.6518971 C97.5628578,54.6209981 97.5628578,40.0145006 106.279639,30.9836016 C113.975535,22.9735869 126.540264,22.9735869 134.31469,30.9836016 L139.57617,36.402141 L144.837651,30.9836016 C152.533547,22.9735869 165.098276,22.9735869 172.872702,30.9836016 C181.589483,40.0145006 181.589483,54.6209981 172.872702,63.6518971 L172.872702,63.7304266 Z" id="Shape" fill="white"></path>
            <path d="M393.069578,69.2274956 L393.069578,73.7822098 L373.044542,73.7822098 L373.044542,64.201604 C373.044542,59.0971828 371.788069,55.170705 369.196593,52.2651114 C366.605118,49.3595178 363.071288,47.9459858 358.438044,47.9459858 C353.8048,47.9459858 350.27097,49.3595178 347.679495,52.2651114 C345.088019,55.170705 343.831547,59.0971828 343.831547,64.201604 L343.831547,90.9801827 L394.168992,90.9801827 L394.168992,108.649333 L343.831547,108.649333 L343.831547,133.150554 L323.80651,133.150554 L323.80651,69.2274956 C323.80651,62.3168946 324.434746,56.3486483 325.769749,51.4012863 C327.104751,46.4539242 329.14652,42.3703873 331.973584,39.1506755 C334.800648,35.9309637 338.334478,33.575077 342.732133,32.0830154 C347.129788,30.5909538 352.312739,29.8056583 358.359514,29.8056583 C364.40629,29.8056583 369.667771,30.5909538 373.986896,32.0830154 C378.306022,33.575077 381.918381,35.9309637 384.745445,39.1506755 C387.572509,42.3703873 389.614278,46.3753947 390.94928,51.4012863 C392.284283,56.4271779 392.912519,62.3168946 392.912519,69.2274956 L393.069578,69.2274956 Z" id="Path" fill="white"></path>
            <path d="M560.651652,69.2274956 L560.651652,73.7822098 L540.626615,73.7822098 L540.626615,64.201604 C540.626615,59.0971828 539.370142,55.170705 536.778667,52.2651114 C534.187191,49.3595178 530.653361,47.9459858 526.020117,47.9459858 C521.386873,47.9459858 517.853043,49.3595178 515.261568,52.2651114 C512.670093,55.170705 511.41362,59.0971828 511.41362,64.201604 L511.41362,133.150554 L491.388583,133.150554 L491.388583,69.2274956 C491.388583,62.3168946 492.016819,56.3486483 493.351822,51.4012863 C494.686824,46.4539242 496.728593,42.3703873 499.555657,39.1506755 C502.382721,35.9309637 505.916551,33.575077 510.314206,32.0830154 C514.711861,30.5909538 519.894812,29.8056583 525.941588,29.8056583 C531.988364,29.8056583 537.249844,30.5909538 541.568969,32.0830154 C545.888095,33.575077 549.500455,35.9309637 552.327519,39.1506755 C555.154583,42.3703873 557.196351,46.3753947 558.531354,51.4012863 C559.866356,56.4271779 560.494593,62.3168946 560.494593,69.2274956 L560.651652,69.2274956 Z" id="Path" fill="white"></path>
            <path d="M644.2071,95.1422492 L644.2071,99.6969634 L624.182063,99.6969634 L624.182063,90.1163576 C624.182063,85.0119364 622.92559,81.0854586 620.334115,78.179865 C617.742639,75.2742714 614.208809,73.8607394 609.575565,73.8607394 C604.942321,73.8607394 601.487021,75.1957419 598.974075,77.9442763 C596.461129,80.6928108 595.126127,84.4622295 594.969068,89.331062 L594.969068,133.150554 L574.944031,133.150554 L574.944031,31.8474267 L594.969068,31.8474267 L594.969068,59.0186532 C597.089366,57.997769 599.288193,57.1339439 601.72261,56.584237 C604.157026,56.0345301 606.748501,55.7204119 609.575565,55.7204119 C615.622341,55.7204119 620.883821,56.5057074 625.202947,57.997769 C629.522073,59.4898306 633.134432,61.8457173 635.961496,65.0654291 C638.78856,68.2851409 640.830329,72.2901483 642.165331,77.3160399 C643.500334,82.3419315 644.12857,88.2316482 644.12857,95.1422492 L644.2071,95.1422492 Z" id="Path" fill="white"></path>
            <path d="M482.750332,118.386998 L472.855608,113.204047 C472.855608,113.204047 472.855608,113.046988 472.855608,113.046988 C473.326785,111.162279 473.797962,109.19904 474.112081,107.000212 C474.583258,103.623441 474.818847,99.9325521 474.818847,95.8490152 L474.818847,31.8474267 L454.79381,31.8474267 L454.79381,100.796377 C454.79381,105.900798 453.537337,109.827276 450.945861,112.73287 C448.432916,115.559934 444.977615,116.894936 440.57996,116.973466 C440.57996,116.973466 440.57996,116.973466 440.57996,116.973466 C440.50143,116.973466 440.344371,116.973466 440.265842,116.973466 C435.632598,116.973466 432.098768,115.559934 429.507293,112.65434 C426.915817,109.748747 425.659344,105.822269 425.659344,100.717848 L425.659344,31.8474267 L405.634307,31.8474267 L405.634307,74.3319167 C405.634307,74.3319167 405.634307,74.3319167 405.634307,74.3319167 L405.634307,95.7704856 C405.634307,102.681087 406.262544,108.649333 407.597546,113.596695 C408.932549,118.544057 410.974317,122.627594 413.801381,125.847306 C416.628445,129.067018 420.162275,131.422904 424.55993,132.914966 C425.580815,133.229084 426.758758,133.464673 427.858172,133.700261 C427.858172,133.700261 427.779642,133.700261 427.701113,133.778791 C428.329349,133.93585 429.036115,134.01438 429.742881,134.171439 C430.763765,134.328498 431.70612,134.564086 432.805534,134.721146 C435.082891,135.035264 437.517307,135.192323 440.187312,135.192323 C440.187312,135.192323 440.187312,135.192323 440.187312,135.192323 C440.187312,135.192323 440.187312,135.192323 440.187312,135.192323 C442.935847,135.192323 445.448792,134.956734 447.804679,134.642616 C448.197327,134.642616 448.668504,134.564086 449.061152,134.485557 C451.338509,134.092909 453.458807,133.621732 455.422046,132.993495 C455.500576,132.993495 459.112935,131.422904 459.269994,131.187316 C460.05529,130.794668 460.762056,130.32349 461.468822,129.852313 L473.405315,136.134678 L482.750332,118.386998 Z" id="Path" fill="white"></path>
            <path d="M369.903359,179.482993 L369.903359,228.014259 C369.903359,230.527204 370.060418,232.647502 370.374537,234.375153 C370.688655,236.102803 371.081303,237.437805 371.63101,238.45869 C372.180716,239.479574 372.887482,240.264869 373.672778,240.736047 C374.458074,241.207224 375.400428,241.442813 376.499842,241.442813 C377.599256,241.442813 378.463081,241.207224 379.248376,240.736047 C380.033672,240.264869 380.583379,239.558103 381.054556,238.45869 C381.525734,237.359276 381.918381,236.024273 382.075441,234.375153 C382.2325,232.726032 382.389559,230.527204 382.389559,228.014259 L382.389559,179.482993 L399.587532,179.482993 L399.587532,225.187195 C399.587532,230.762793 399.273413,235.631625 398.645177,239.715162 C398.01694,243.798699 396.917527,247.096941 395.189876,249.688416 C393.462226,252.279891 391.106339,254.24313 388.122216,255.499603 C385.138093,256.756076 381.211615,257.384313 376.342783,257.384313 C371.47395,257.384313 367.547473,256.756076 364.48482,255.499603 C361.422167,254.24313 358.987751,252.358421 357.181571,249.688416 C355.375391,247.018411 354.197448,243.72017 353.490682,239.715162 C352.783916,235.710155 352.469798,230.841323 352.469798,225.187195 L352.469798,195.81714 L340.847423,195.81714 L340.847423,255.499603 L323.649451,255.499603 L323.649451,154.196476 L340.847423,154.196476 L340.847423,179.482993 L369.667771,179.482993 L369.903359,179.482993 Z" id="Path" fill="white"></path>
            <path d="M486.284162,218.119534 C486.284162,225.030135 485.655925,230.998382 484.320923,235.945744 C482.98592,240.893106 480.944152,244.976643 478.117088,248.196355 C475.290024,251.416066 471.756194,253.771953 467.358539,255.264015 C462.960884,256.756076 457.777933,257.541372 451.731157,257.541372 C445.684381,257.541372 440.422901,256.756076 436.103775,255.264015 C431.78465,253.771953 428.17229,251.416066 425.345226,248.196355 C422.518162,244.976643 420.476394,240.971635 419.141391,235.945744 C417.806389,230.919852 417.178152,225.030135 417.178152,218.119534 L417.178152,171.865626 L407.283428,171.865626 L407.283428,154.196476 L437.203189,154.196476 L437.203189,223.145426 C437.203189,228.249847 438.459662,232.176325 441.051137,235.081919 C443.642613,237.987512 447.176443,239.401044 451.809687,239.401044 C456.44293,239.401044 459.97676,237.987512 462.568236,235.081919 C465.159711,232.176325 466.416184,228.249847 466.416184,223.145426 L466.416184,213.56482 L486.441221,213.56482 L486.441221,218.119534 L486.284162,218.119534 Z" id="Path" fill="white"></path>
            <path d="M623.475297,154.196476 L653.395058,154.196476 L653.395058,171.865626 L643.500334,171.865626 L643.500334,218.119534 C643.500334,225.030135 642.872097,230.998382 641.537095,235.945744 C640.202092,240.893106 638.160324,244.976643 635.33326,248.196355 C632.506196,251.416066 628.972366,253.771953 624.574711,255.264015 C620.177055,256.756076 614.994105,257.541372 608.947329,257.541372 C602.900553,257.541372 597.639073,256.756076 593.319947,255.264015 C589.000822,253.771953 585.388462,251.416066 582.561398,248.196355 C579.734334,244.976643 577.692565,240.971635 576.357563,235.945744 C575.02256,230.919852 574.394324,225.030135 574.394324,218.119534 L574.394324,154.196476 L594.419361,154.196476 L594.419361,223.145426 C594.419361,228.249847 595.675834,232.176325 598.267309,235.081919 C600.858785,237.987512 604.392615,239.401044 609.025858,239.401044 C613.659102,239.401044 617.192932,237.987512 619.784408,235.081919 C622.375883,232.176325 623.632356,228.249847 623.632356,223.145426 L623.632356,154.196476 L623.475297,154.196476 Z" id="Path" fill="white"></path>
            <path d="M668.94391,227.386022 L668.94391,183.723589 C668.94391,179.168874 669.572146,175.006808 670.907149,171.237389 C672.242151,167.467971 674.20539,164.0912 676.875395,161.342665 C679.5454,158.594131 683.0007,156.395303 687.162767,154.824712 C691.324833,153.254121 696.350725,152.468825 702.161912,152.468825 C707.973099,152.468825 712.998991,153.254121 717.161058,154.903242 C721.323124,156.552362 724.856954,158.75119 727.684018,161.499724 C730.511082,164.248259 732.474321,167.62503 733.809323,171.472978 C735.144326,175.320926 735.772562,179.482993 735.772562,183.959177 C735.772562,188.435362 735.144326,192.675958 733.809323,196.523906 C732.474321,200.371855 730.432553,203.670096 727.684018,206.49716 C724.935484,209.324224 721.401654,211.523052 717.161058,213.093643 C712.920461,214.664234 707.89457,215.44953 702.161912,215.44953 C700.198673,215.44953 698.078375,215.213941 695.801018,214.664234 C693.523661,214.114527 691.246304,213.329231 689.047476,212.151288 L689.047476,227.464552 L726.663134,227.464552 L726.663134,245.133702 L689.047476,245.133702 L689.047476,255.578133 L669.022439,255.578133 L669.022439,245.133702 L659.127715,245.133702 L659.127715,227.464552 L669.022439,227.464552 L668.94391,227.386022 Z M708.601336,170.766212 C706.873686,170.059446 704.753388,169.745328 702.083383,169.745328 C699.413378,169.745328 697.29308,170.059446 695.56543,170.766212 C693.837779,171.472978 692.502777,172.415333 691.560422,173.593276 C690.618067,174.771219 689.911301,176.263281 689.518654,177.990931 C689.126006,179.718581 688.968947,181.603291 688.968947,183.723589 C688.968947,185.843887 689.204535,187.807126 689.597183,189.534776 C689.989831,191.262426 690.775127,192.754488 691.796011,194.010961 C692.816895,195.267434 694.230427,196.288318 695.958077,196.995084 C697.685728,197.70185 699.806026,198.015968 702.397501,198.015968 C704.988976,198.015968 707.030745,197.70185 708.679865,196.995084 C710.328986,196.288318 711.663989,195.424493 712.684873,194.16802 C713.705757,192.911547 714.333993,191.419485 714.726641,189.691835 C715.119289,187.964185 715.276348,185.922416 715.276348,183.802118 C715.276348,181.68182 715.040759,179.797111 714.648112,178.069461 C714.255464,176.34181 713.548698,174.849749 712.527814,173.593276 C711.506929,172.336803 710.171927,171.394448 708.522806,170.687682 L708.601336,170.766212 Z" id="Shape" fill="white"></path>
            <path d="M570.546376,240.657517 L560.651652,235.474566 C560.651652,235.474566 560.651652,235.317507 560.651652,235.317507 C561.122829,233.432798 561.594006,231.469559 561.908125,229.270731 C562.379302,225.893961 562.614891,222.203071 562.614891,218.119534 L562.614891,154.196476 L542.589854,154.196476 L542.589854,223.145426 C542.589854,228.249847 541.333381,232.176325 538.741905,235.081919 C536.22896,237.908983 532.773659,239.243985 528.376004,239.322515 C528.376004,239.322515 528.376004,239.322515 528.376004,239.322515 C528.297474,239.322515 528.140415,239.322515 528.061886,239.322515 C523.428642,239.322515 519.894812,237.908983 517.303337,235.003389 C514.711861,232.097795 513.455388,228.171318 513.455388,223.066896 L513.455388,154.117946 L493.430351,154.117946 L493.430351,196.602436 C493.430351,196.602436 493.430351,196.602436 493.430351,196.602436 L493.430351,218.041005 C493.430351,224.951606 494.058588,230.919852 495.39359,235.867214 C496.728593,240.814576 498.770361,244.898113 501.597425,248.117825 C504.424489,251.337537 507.958319,253.693423 512.355975,255.185485 C513.376859,255.499603 514.554802,255.735192 515.654216,255.970781 C515.654216,255.970781 515.575686,255.970781 515.497157,256.04931 C516.125393,256.206369 516.832159,256.284899 517.538925,256.441958 C518.559809,256.599017 519.502164,256.834606 520.601578,256.991665 C522.878935,257.305783 525.313351,257.462842 527.983356,257.462842 C527.983356,257.462842 527.983356,257.462842 527.983356,257.462842 C527.983356,257.462842 527.983356,257.462842 527.983356,257.462842 C530.731891,257.462842 533.244837,257.227253 535.600723,256.913135 C535.993371,256.913135 536.464548,256.834606 536.857196,256.756076 C539.134553,256.363428 541.254851,255.892251 543.21809,255.264015 C543.29662,255.264015 546.908979,253.693423 547.066038,253.457835 C547.851334,253.065187 548.5581,252.59401 549.264866,252.122832 L561.201359,258.405197 L570.546376,240.657517 Z" id="Path" fill="white"></path>
        </g>
    </g>
</svg>