<svg width="125" height="28" viewBox="0 0 125 28" fill="none" xmlns="http://www.w3.org/2000/svg">
    <path d="M15.2631 0.0272436C16.3167 0.102777 17.295 0.329378 18.2734 0.707047C20.5311 1.46239 22.4878 2.74646 24.0682 4.55927C25.1218 5.76781 25.9496 7.12742 26.627 8.56256C26.627 8.6381 26.627 8.71363 26.7022 8.78916C26.4012 8.71363 26.2507 8.6381 26.0249 8.6381C24.3692 8.18489 22.7136 8.10936 21.0579 8.33596C18.7249 8.63809 16.8435 9.7711 15.2631 11.4328C14.5858 12.1126 13.8332 12.7925 13.1559 13.4723C11.8765 14.6808 10.3713 15.4361 9.09196 14.6053C7.81258 13.7744 8.4899 11.735 9.99505 9.9977C10.4466 9.46897 10.8981 9.01576 11.3497 8.56256L9.39299 6.44762C5.70537 9.0913 1.49096 13.9255 5.17857 18.382C7.28578 20.9501 9.84454 20.648 10.8229 20.648C11.6507 20.648 12.4785 20.4214 13.2311 20.2703C13.6827 20.1948 14.1342 19.9682 14.5858 19.8171C14.661 19.8171 14.7363 19.7416 14.8868 19.7416C14.1342 20.8746 13.5322 21.932 13.5322 23.2161C13.9084 23.0651 14.4352 22.8384 14.7363 22.7629C15.5641 22.3852 16.4672 22.2342 17.4455 22.3852C18.9507 22.6118 19.7785 23.8959 19.4775 25.4066C19.327 26.1619 18.8002 26.6907 18.1229 26.9928C17.3703 27.446 16.4672 27.5971 15.5641 27.7481C14.36 27.8992 13.2311 27.8992 12.027 27.7481C11.0487 27.5971 10.1456 27.3705 9.24248 27.0683C7.81259 26.5396 6.45795 25.7843 5.25383 24.8023C3.67342 23.5183 2.39405 21.932 1.49096 20.1192C0.888896 18.9107 0.43735 17.6266 0.211578 16.267C-0.0141945 14.8319 -0.0894519 13.4723 0.136321 12.0371C0.286836 11.2818 0.437351 10.4509 0.663123 9.69557C1.11467 8.26043 1.71673 6.97635 2.61982 5.76781C3.82394 4.03053 5.40435 2.67093 7.28578 1.61345C8.26413 1.08472 9.31773 0.631514 10.4466 0.329378C11.9517 0.0272433 13.6074 -0.0482902 15.2631 0.0272436ZM10.6724 2.59539C9.99505 3.35073 9.99505 4.55927 10.6724 5.31461L13.3816 8.18489L16.0909 5.31461C16.7682 4.55927 16.7682 3.35073 16.0909 2.59539C15.4888 1.91559 14.4352 1.91559 13.7579 2.59539L13.3064 3.0486L12.8548 2.59539C12.328 1.91559 11.3497 1.91559 10.6724 2.59539Z" fill="white"/>
    <path d="M20.1544 15.2849C19.4018 15.2849 18.875 14.7562 18.875 14.0009C18.875 13.2455 19.4771 12.7168 20.1544 12.7168C20.907 12.7168 21.509 13.3211 21.4338 14.0009C21.509 14.6807 20.907 15.2849 20.1544 15.2849Z" fill="white"/>
    <path d="M120.247 15.6625C120.247 16.0402 120.247 16.3423 120.247 16.72C120.322 16.72 120.398 16.72 120.473 16.72C121.677 16.72 122.881 16.72 124.085 16.72C124.612 16.72 124.913 17.0221 124.988 17.5509C125.063 18.0796 124.762 18.5328 124.311 18.6839C124.16 18.6839 124.085 18.7594 123.935 18.7594C122.731 18.7594 121.602 18.7594 120.398 18.7594C120.322 18.7594 120.247 18.7594 120.172 18.7594C120.172 18.986 120.172 19.1371 120.172 19.2881C120.172 19.6658 119.946 20.0435 119.57 20.119C119.193 20.2701 118.742 20.1945 118.441 19.8924C118.29 19.6658 118.215 19.4392 118.215 19.2126C118.215 19.0615 118.215 18.9105 118.215 18.6839C118.065 18.6839 117.914 18.6839 117.764 18.6839C117.312 18.6839 117.011 18.3817 116.86 18.0041C116.71 17.5509 116.86 17.0221 117.237 16.8711C117.387 16.7955 117.538 16.7955 117.688 16.72C117.839 16.72 117.989 16.72 118.14 16.72C118.14 16.6444 118.14 16.5689 118.14 16.4934C118.14 15.1338 118.14 13.8497 118.14 12.4901C118.14 11.5082 118.516 10.6017 119.269 9.92194C119.871 9.31767 120.623 9.09107 121.526 9.09107C123.333 9.01554 124.537 10.2996 124.838 11.5082C125.214 13.0188 124.762 14.5295 123.408 15.3604C122.956 15.6625 122.429 15.8136 121.827 15.8136C121.376 15.8891 120.849 15.8891 120.247 15.6625ZM120.322 12.6412C120.322 12.8678 120.398 13.0944 120.398 13.321C120.548 13.8497 121 14.1518 121.677 14.1518C122.429 14.1518 122.881 13.6986 122.956 13.0188C122.956 12.7167 122.956 12.4146 122.956 12.188C122.881 11.6592 122.505 11.2816 121.978 11.206C121.752 11.1305 121.602 11.206 121.376 11.206C121.075 11.206 120.774 11.3571 120.623 11.5837C120.398 11.8103 120.322 12.188 120.322 12.6412Z" fill="white"/>
    <path d="M76.5222 12.1879C76.5974 12.1879 76.6727 12.1879 76.6727 12.1879C77.35 12.1879 77.9521 12.1879 78.6294 12.1879C79.2315 12.1879 79.6077 12.5655 79.6077 13.1698C79.6077 13.8496 79.6077 14.6049 79.6077 15.2847C79.6077 16.1156 80.2851 16.7954 81.1129 16.7954C81.9407 16.7954 82.618 16.1911 82.6933 15.3603C82.6933 14.6049 82.6933 13.8496 82.6933 13.0943C82.6933 12.49 83.0696 12.1123 83.6716 12.1123C84.2737 12.1123 84.65 12.49 84.65 13.0943C84.65 13.8496 84.65 14.5294 84.65 15.2847C84.65 17.0976 83.2201 18.6082 81.4139 18.7593C79.3067 18.9104 77.5758 17.3242 77.5758 15.2847C77.5758 14.9071 77.5758 14.5294 77.5758 14.1517C77.1995 14.1517 76.8232 14.1517 76.4469 14.1517C76.4469 14.2273 76.4469 14.3028 76.4469 14.3783C76.4469 15.9645 76.4469 17.5508 76.4469 19.137C76.4469 19.6657 76.1459 20.0434 75.7696 20.1189C74.9418 20.27 74.4902 19.7412 74.4902 19.137C74.4902 16.1156 74.4902 13.1698 74.4902 10.1484C74.4902 9.69524 74.716 9.39311 75.0923 9.24204C75.3933 9.09097 75.9201 9.1665 76.2212 9.46864C76.3717 9.69524 76.4469 9.92184 76.4469 10.1484C76.4469 10.7527 76.4469 11.4325 76.4469 12.0368C76.5222 12.0368 76.5222 12.1123 76.5222 12.1879Z" fill="white"/>
    <path d="M47.3979 19.5146C46.6454 20.0434 45.8175 20.27 44.9897 20.27C44.2371 20.27 43.5598 20.1944 42.8825 19.8168C41.7536 19.2125 41.1516 18.2306 41.001 17.022C40.9258 16.7199 40.9258 16.3422 40.9258 16.0401C40.9258 14.1517 40.9258 12.3389 40.9258 10.4506C40.9258 10.375 40.9258 10.224 40.9258 10.1484C41.001 9.31757 41.9794 9.09096 42.5062 9.46863C42.732 9.6197 42.8825 9.8463 42.8825 10.1484C42.8825 10.224 42.8825 10.375 42.8825 10.4506C42.8825 12.3389 42.8825 14.3028 42.8825 16.1911C42.8825 16.4933 42.8825 16.7954 42.9577 17.022C43.1082 17.7018 43.7103 18.155 44.3876 18.2306C44.8392 18.3061 45.2155 18.3061 45.5917 18.2306C46.3443 18.004 46.7959 17.3997 46.8711 16.5688C46.8711 16.2667 46.8711 15.889 46.8711 15.5869C46.8711 13.8496 46.8711 12.1123 46.8711 10.2995C46.8711 10.0729 46.8711 9.8463 47.0216 9.6197C47.2474 9.31757 47.699 9.1665 48.1505 9.31757C48.5268 9.46863 48.8278 9.77077 48.8278 10.224C48.8278 12.3389 48.8278 14.5294 48.8278 16.6443C48.8278 16.9465 48.7526 17.1731 48.6773 17.4752C48.6773 17.6263 48.6773 17.7018 48.7526 17.7774C48.9783 18.004 49.2041 18.155 49.4299 18.3816C49.7309 18.6838 49.8062 19.137 49.5804 19.5146C49.4299 19.9678 49.0536 20.1944 48.602 20.27C48.2258 20.3455 47.9247 20.1944 47.699 19.9678C47.699 19.7412 47.5484 19.5902 47.3979 19.5146Z" fill="white"/>
    <path d="M103.013 19.5146C102.562 19.8922 102.035 20.1188 101.433 20.1944C100.605 20.3454 99.777 20.3454 99.0244 20.0433C97.6698 19.5146 96.9172 18.5326 96.6915 17.0975C96.6162 16.7954 96.6162 16.4932 96.6162 16.1911C96.6162 14.2272 96.6162 12.2633 96.6162 10.375C96.6162 10.0729 96.6915 9.77072 96.9172 9.54411C97.2183 9.31751 97.5946 9.24198 97.9708 9.39305C98.3471 9.54412 98.4976 9.84625 98.4976 10.2995C98.4976 12.2633 98.4976 14.3027 98.4976 16.2666C98.4976 16.5688 98.5729 16.8709 98.6482 17.0975C98.7987 17.6262 99.175 18.0039 99.7018 18.155C100.153 18.306 100.605 18.306 101.132 18.2305C101.884 18.0794 102.336 17.5507 102.411 16.7954C102.486 16.4932 102.411 16.1156 102.411 15.8134C102.411 14.0006 102.411 12.1123 102.411 10.2995C102.411 9.92178 102.562 9.54412 102.938 9.39305C103.314 9.24198 103.69 9.31751 104.067 9.54411C104.292 9.77072 104.368 9.99732 104.368 10.2995C104.368 10.7527 104.368 11.2059 104.368 11.6591C104.368 13.1697 104.368 14.7559 104.368 16.2666C104.368 16.7198 104.292 17.0975 104.217 17.5507C104.217 17.6262 104.217 17.7018 104.292 17.7018C104.443 17.8528 104.669 18.0039 104.819 18.155C105.196 18.4571 105.346 18.8348 105.271 19.3635C105.12 19.8167 104.895 20.1188 104.368 20.1944C103.991 20.2699 103.69 20.1944 103.389 19.9678C103.314 19.7412 103.164 19.5901 103.013 19.5146Z" fill="white"/>
    <path d="M115.28 11.2057C115.28 11.2812 115.28 11.3568 115.28 11.4323C115.28 13.0185 115.28 14.6803 115.28 16.2665C115.28 17.0973 115.129 17.8527 114.603 18.608C114.001 19.59 113.097 20.1187 111.969 20.2698C111.216 20.3453 110.463 20.3453 109.786 20.0432C108.507 19.5144 107.754 18.5325 107.528 17.1729C107.453 16.9463 107.453 16.6441 107.453 16.4175C107.453 14.3781 107.453 12.3387 107.453 10.3748C107.453 9.54396 108.206 9.24183 108.733 9.39289C109.109 9.46843 109.41 9.77056 109.41 10.2993C109.41 10.3748 109.41 10.4504 109.41 10.5259C109.41 12.4898 109.41 14.4537 109.41 16.4931C109.41 17.0218 109.56 17.475 109.937 17.9282C110.238 18.2303 110.614 18.3814 111.065 18.4569C111.442 18.5325 111.818 18.4569 112.194 18.3814C112.947 18.1548 113.398 17.475 113.398 16.6441C113.398 14.6047 113.398 12.6408 113.398 10.6014C113.398 10.3748 113.398 10.0727 113.549 9.92163C113.7 9.61949 114.001 9.46843 114.302 9.46843C114.904 9.46843 115.506 9.46843 116.183 9.46843C116.635 9.46843 117.011 9.84609 117.011 10.2993C117.011 10.4504 117.011 10.6014 117.011 10.7525C116.936 11.2057 116.559 11.4323 116.108 11.4323C115.731 11.2812 115.506 11.2057 115.28 11.2057Z" fill="white"/>
    <path d="M32.5719 15.6625C32.6472 15.6625 32.7224 15.6625 32.7977 15.6625C34.3781 15.6625 35.9585 15.6625 37.6142 15.6625C38.0657 15.6625 38.442 15.9647 38.5173 16.4179C38.5925 17.0221 38.3668 17.4753 37.84 17.5509C37.6894 17.5509 37.6142 17.6264 37.4637 17.6264C35.8833 17.6264 34.3781 17.6264 32.7977 17.6264C32.7224 17.6264 32.6472 17.6264 32.5719 17.6264C32.5719 17.7019 32.5719 17.7775 32.5719 17.7775C32.5719 18.2307 32.5719 18.6839 32.5719 19.1371C32.5719 19.6658 32.1956 20.119 31.5936 20.119C30.9915 20.119 30.6152 19.7414 30.6152 19.2126V19.1371C30.6152 17.0977 30.6152 15.1338 30.6152 13.0944C30.6152 12.339 30.7657 11.5837 31.142 10.9794C31.7441 9.92196 32.7224 9.39323 33.9266 9.24216C34.6791 9.16662 35.4317 9.16662 36.1843 9.46876C37.3884 9.9975 38.141 10.9794 38.3668 12.2635C38.442 12.5656 38.442 12.9433 38.442 13.2454C38.442 13.8497 38.0657 14.2274 37.5389 14.2274C36.9369 14.2274 36.5606 13.8497 36.4853 13.2454C36.4853 13.0188 36.4853 12.7922 36.4101 12.5656C36.2595 11.7348 35.6575 11.206 34.8297 11.1305C34.5286 11.1305 34.2276 11.1305 34.0018 11.206C33.2492 11.3571 32.7224 11.9614 32.5719 12.7167C32.5719 12.8678 32.5719 13.0188 32.5719 13.2454C32.5719 14.0008 32.5719 14.8317 32.5719 15.6625Z" fill="white"/>
    <path d="M86.7569 11.2061C86.5312 11.2061 86.3054 11.2061 86.0796 11.2061C85.3271 11.2061 84.8755 10.6018 85.1013 9.92199C85.1765 9.54432 85.5528 9.24219 85.9291 9.24219C86.6064 9.24219 87.2838 9.24219 87.8858 9.24219C88.3374 9.24219 88.7136 9.61986 88.7136 10.1486C88.7136 10.2241 88.7136 10.3752 88.7136 10.4507C88.7136 12.3391 88.7136 14.303 88.7136 16.1913C88.7136 16.4179 88.7136 16.6445 88.7889 16.8711C89.0147 17.702 89.5415 18.1552 90.4446 18.2307C90.7456 18.2307 91.0466 18.2307 91.3477 18.1552C92.1002 18.0041 92.627 17.3998 92.7023 16.6445C92.7023 16.4179 92.7023 16.2668 92.7023 16.0402C92.7023 15.5115 93.0786 15.1338 93.6054 15.0583C94.2074 15.0583 94.659 15.3604 94.659 15.8892C94.8095 17.7775 93.8312 19.5903 91.7239 20.0435C90.6703 20.2701 89.6167 20.1946 88.7136 19.6659C87.5848 19.0616 86.9827 18.0796 86.8322 16.8711C86.757 16.569 86.7569 16.2668 86.7569 15.9647C86.7569 14.454 86.7569 12.8678 86.7569 11.3571C86.7569 11.4327 86.7569 11.3571 86.7569 11.2061Z" fill="white"/>
    <path d="M63.7282 12.4145C64.1045 12.2634 64.4808 12.1124 64.8571 12.0368C65.7602 11.8102 66.588 11.8858 67.4911 12.1879C68.7705 12.7166 69.4478 13.7741 69.6736 15.1337C69.7488 15.4359 69.7488 15.738 69.6736 16.0401C69.5983 16.4933 69.1468 16.871 68.6952 16.871C68.2437 16.871 67.7921 16.4933 67.7169 16.0401C67.7169 15.8135 67.7169 15.5869 67.6416 15.3603C67.4159 14.4539 66.6633 13.8497 65.6849 13.9252C65.0076 13.9252 64.4056 14.1518 64.0293 14.7561C63.8035 15.1337 63.7282 15.5114 63.7282 15.8891C63.7282 16.9465 63.7282 18.0795 63.7282 19.137C63.7282 19.5902 63.4272 19.9679 62.9757 20.0434C62.1478 20.1945 61.6963 19.6658 61.6963 19.0615C61.6963 16.1157 61.6963 13.1698 61.6963 10.224C61.6963 9.77083 61.9221 9.39316 62.3736 9.24209C62.8252 9.09103 63.2767 9.16656 63.5777 9.61976C63.7282 9.77083 63.7282 9.99743 63.7282 10.224C63.7282 10.9038 63.7282 11.5836 63.7282 12.2634C63.7282 12.339 63.7282 12.339 63.7282 12.4145Z" fill="white"/>
    <path d="M51.7623 16.0401C51.7623 15.0581 51.7623 14.0762 51.7623 13.0187C51.7623 12.1878 51.9881 11.4325 52.5149 10.6772C53.1922 9.77075 54.02 9.31754 55.1489 9.16647C55.8262 9.09094 56.5788 9.09094 57.2561 9.39308C58.5355 9.84628 59.2881 10.8282 59.5891 12.1878C59.6644 12.5655 59.6644 13.0187 59.6644 13.3964C59.6644 13.9251 59.2128 14.1517 58.686 14.1517C58.1592 14.1517 57.7829 13.774 57.7829 13.3208C57.7829 13.0187 57.7829 12.7166 57.7077 12.49C57.5571 11.6591 56.9551 11.1304 56.052 11.1304C55.751 11.1304 55.5252 11.1304 55.2242 11.2059C54.3963 11.357 53.9448 11.9612 53.7943 12.7166C53.7943 12.8676 53.7943 13.0187 53.7943 13.2453C53.7943 15.2092 53.7943 17.1731 53.7943 19.1369C53.7943 19.5146 53.6438 19.8923 53.2675 20.0433C52.8912 20.1944 52.5149 20.1189 52.1386 19.8167C51.9128 19.5901 51.8376 19.288 51.8376 18.9859C51.6871 18.0039 51.6871 17.022 51.7623 16.0401Z" fill="white"/>
</svg>
