<svg width="166" height="37" viewBox="0 0 166 37" fill="none" xmlns="http://www.w3.org/2000/svg">
    <path d="M20.2694 0.0361794C21.6686 0.136488 22.9678 0.437415 24.267 0.938959C27.2653 1.94205 29.8638 3.6473 31.9626 6.05471C33.3618 7.65965 34.4611 9.46521 35.3606 11.3711C35.3606 11.4714 35.3606 11.5717 35.4605 11.672C35.0608 11.5717 34.8609 11.4714 34.5611 11.4714C32.3623 10.8695 30.1636 10.7692 27.9649 11.0702C24.8667 11.4714 22.3681 12.976 20.2694 15.1828C19.3699 16.0856 18.3705 16.9884 17.471 17.8912C15.772 19.4961 13.7731 20.4992 12.0741 19.3958C10.3751 18.2924 11.2746 15.5841 13.2734 13.277C13.8731 12.5748 14.4727 11.9729 15.0724 11.3711L12.4739 8.56243C7.57674 12.0732 1.97999 18.493 6.87714 24.4112C9.67552 27.8217 13.0735 27.4205 14.3728 27.4205C15.4721 27.4205 16.5715 27.1196 17.5709 26.919C18.1706 26.8187 18.7702 26.5177 19.3699 26.3171C19.4698 26.3171 19.5698 26.2168 19.7697 26.2168C18.7702 27.7214 17.9707 29.1258 17.9707 30.831C18.4704 30.6304 19.17 30.3295 19.5698 30.2292C20.6691 29.7276 21.8684 29.527 23.1677 29.7276C25.1665 30.0285 26.2659 31.7338 25.8661 33.74C25.6662 34.7431 24.9666 35.4452 24.0672 35.8465C23.0677 36.4483 21.8684 36.6489 20.6691 36.8495C19.0701 37.0502 17.5709 37.0502 15.9719 36.8495C14.6726 36.6489 13.4733 36.348 12.274 35.9468C10.3751 35.2446 8.57616 34.2415 6.97709 32.9375C4.8783 31.2322 3.17929 29.1258 1.97999 26.7183C1.18045 25.1134 0.580801 23.4081 0.280976 21.6026C-0.0188503 19.6967 -0.118792 17.8912 0.181034 15.9853C0.380918 14.9822 0.580802 13.8788 0.880628 12.8757C1.48028 10.9698 2.27981 9.2646 3.47912 7.65965C5.07819 5.35255 7.17697 3.54699 9.67552 2.14267C10.9748 1.4405 12.3739 0.83865 13.8731 0.437415C15.8719 0.036179 18.0706 -0.0641294 20.2694 0.0361794ZM14.1729 3.44668C13.2734 4.44977 13.2734 6.05471 14.1729 7.0578L17.7708 10.8695L21.3687 7.0578C22.2682 6.05471 22.2682 4.44977 21.3687 3.44668C20.5692 2.5439 19.17 2.5439 18.2705 3.44668L17.6709 4.04853L17.0712 3.44668C16.3716 2.5439 15.0724 2.5439 14.1729 3.44668Z" fill="#0987ED"/>
    <path d="M26.7657 20.2986C25.7662 20.2986 25.0667 19.5964 25.0667 18.5933C25.0667 17.5902 25.8662 16.8881 26.7657 16.8881C27.7651 16.8881 28.5646 17.6905 28.4647 18.5933C28.5646 19.4961 27.7651 20.2986 26.7657 20.2986Z" fill="#0987ED"/>
    <path d="M159.688 20.8001C159.688 21.3017 159.688 21.7029 159.688 22.2044C159.788 22.2044 159.888 22.2044 159.988 22.2044C161.587 22.2044 163.186 22.2044 164.785 22.2044C165.485 22.2044 165.885 22.6057 165.985 23.3078C166.085 24.01 165.685 24.6119 165.085 24.8125C164.885 24.8125 164.785 24.9128 164.585 24.9128C162.986 24.9128 161.487 24.9128 159.888 24.9128C159.788 24.9128 159.688 24.9128 159.588 24.9128C159.588 25.2137 159.588 25.4143 159.588 25.615C159.588 26.1165 159.288 26.618 158.789 26.7184C158.289 26.919 157.689 26.8187 157.29 26.4174C157.09 26.1165 156.99 25.8156 156.99 25.5146C156.99 25.314 156.99 25.1134 156.99 24.8125C156.79 24.8125 156.59 24.8125 156.39 24.8125C155.791 24.8125 155.391 24.4112 155.191 23.9097C154.991 23.3078 155.191 22.6057 155.691 22.4051C155.89 22.3048 156.09 22.3048 156.29 22.2044C156.49 22.2044 156.69 22.2044 156.89 22.2044C156.89 22.1041 156.89 22.0038 156.89 21.9035C156.89 20.098 156.89 18.3927 156.89 16.5872C156.89 15.2831 157.39 14.0794 158.389 13.1767C159.189 12.3742 160.188 12.0733 161.387 12.0733C163.786 11.9729 165.385 13.6782 165.785 15.2831C166.284 17.2893 165.685 19.2955 163.886 20.3989C163.286 20.8001 162.587 21.0007 161.787 21.0007C161.187 21.1011 160.488 21.1011 159.688 20.8001ZM159.788 16.7878C159.788 17.0887 159.888 17.3896 159.888 17.6905C160.088 18.3927 160.688 18.7939 161.587 18.7939C162.587 18.7939 163.186 18.1921 163.286 17.2893C163.286 16.8881 163.286 16.4868 163.286 16.1859C163.186 15.4838 162.687 14.9822 161.987 14.8819C161.687 14.7816 161.487 14.8819 161.187 14.8819C160.788 14.8819 160.388 15.0825 160.188 15.3834C159.888 15.6844 159.788 16.1859 159.788 16.7878Z" fill="#0C0C0C"/>
    <path d="M101.622 16.1859C101.722 16.1859 101.822 16.1859 101.822 16.1859C102.721 16.1859 103.521 16.1859 104.42 16.1859C105.22 16.1859 105.72 16.6875 105.72 17.4899C105.72 18.3927 105.72 19.3958 105.72 20.2986C105.72 21.402 106.619 22.3048 107.718 22.3048C108.818 22.3048 109.717 21.5023 109.817 20.3989C109.817 19.3958 109.817 18.3927 109.817 17.3896C109.817 16.5871 110.317 16.0856 111.116 16.0856C111.916 16.0856 112.416 16.5871 112.416 17.3896C112.416 18.3927 112.416 19.2955 112.416 20.2986C112.416 22.706 110.517 24.7122 108.118 24.9128C105.32 25.1134 103.021 23.0069 103.021 20.2986C103.021 19.797 103.021 19.2955 103.021 18.7939C102.521 18.7939 102.022 18.7939 101.522 18.7939C101.522 18.8942 101.522 18.9946 101.522 19.0949C101.522 21.2014 101.522 23.3078 101.522 25.4143C101.522 26.1165 101.122 26.618 100.623 26.7183C99.5232 26.919 98.9236 26.2168 98.9236 25.4143C98.9236 21.402 98.9236 17.4899 98.9236 13.4776C98.9236 12.8757 99.2234 12.4745 99.7231 12.2739C100.123 12.0732 100.822 12.1736 101.222 12.5748C101.422 12.8757 101.522 13.1766 101.522 13.4776C101.522 14.28 101.522 15.1828 101.522 15.9853C101.622 15.9853 101.622 16.0856 101.622 16.1859Z" fill="#0C0C0C"/>
    <path d="M62.9445 25.9159C61.9451 26.618 60.8457 26.919 59.7463 26.919C58.7469 26.919 57.8475 26.8187 56.948 26.3171C55.4489 25.5146 54.6493 24.2106 54.4494 22.6057C54.3495 22.2044 54.3495 21.7029 54.3495 21.3017C54.3495 18.7939 54.3495 16.3865 54.3495 13.8788C54.3495 13.7785 54.3495 13.5779 54.3495 13.4776C54.4494 12.3742 55.7487 12.0732 56.4483 12.5748C56.7481 12.7754 56.948 13.0763 56.948 13.4776C56.948 13.5779 56.948 13.7785 56.948 13.8788C56.948 16.3865 56.948 18.9946 56.948 21.5023C56.948 21.9035 56.948 22.3048 57.0479 22.6057C57.2478 23.5085 58.0473 24.1103 58.9468 24.2106C59.5465 24.3109 60.0462 24.3109 60.5459 24.2106C61.5453 23.9097 62.145 23.1072 62.2449 22.0038C62.2449 21.6026 62.2449 21.101 62.2449 20.6998C62.2449 18.3927 62.2449 16.0856 62.2449 13.6782C62.2449 13.3773 62.2449 13.0763 62.4448 12.7754C62.7446 12.3742 63.3443 12.1736 63.9439 12.3742C64.4436 12.5748 64.8434 12.976 64.8434 13.5779C64.8434 16.3865 64.8434 19.2955 64.8434 22.1041C64.8434 22.5054 64.7434 22.8063 64.6435 23.2075C64.6435 23.4082 64.6435 23.5085 64.7434 23.6088C65.0433 23.9097 65.3431 24.1103 65.6429 24.4112C66.0427 24.8125 66.1426 25.4143 65.8428 25.9159C65.6429 26.5177 65.1432 26.8187 64.5436 26.919C64.0439 27.0193 63.6441 26.8187 63.3443 26.5177C63.3443 26.2168 63.1444 26.0162 62.9445 25.9159Z" fill="#0C0C0C"/>
    <path d="M136.802 25.9159C136.202 26.4174 135.502 26.7184 134.703 26.8187C133.603 27.0193 132.504 27.0193 131.505 26.618C129.706 25.9159 128.706 24.6119 128.406 22.706C128.307 22.3048 128.307 21.9035 128.307 21.5023C128.307 18.8943 128.307 16.2862 128.307 13.7785C128.307 13.3773 128.406 12.976 128.706 12.6751C129.106 12.3742 129.606 12.2739 130.105 12.4745C130.605 12.6751 130.805 13.0763 130.805 13.6782C130.805 16.2862 130.805 18.9946 130.805 21.6026C130.805 22.0038 130.905 22.4051 131.005 22.706C131.205 23.4082 131.705 23.9097 132.404 24.1103C133.004 24.3109 133.603 24.3109 134.303 24.2106C135.302 24.01 135.902 23.3078 136.002 22.3048C136.102 21.9035 136.002 21.402 136.002 21.0007C136.002 18.5933 136.002 16.0856 136.002 13.6782C136.002 13.1767 136.202 12.6751 136.702 12.4745C137.201 12.2739 137.701 12.3742 138.201 12.6751C138.501 12.976 138.601 13.277 138.601 13.6782C138.601 14.28 138.601 14.8819 138.601 15.4838C138.601 17.4899 138.601 19.5964 138.601 21.6026C138.601 22.2045 138.501 22.706 138.401 23.3078C138.401 23.4082 138.401 23.5085 138.501 23.5085C138.7 23.7091 139 23.9097 139.2 24.1103C139.7 24.5116 139.9 25.0131 139.8 25.7153C139.6 26.3171 139.3 26.7184 138.601 26.8187C138.101 26.919 137.701 26.8187 137.301 26.5177C137.201 26.2168 137.001 26.0162 136.802 25.9159Z" fill="#0C0C0C"/>
    <path d="M153.092 14.8819C153.092 14.9822 153.092 15.0825 153.092 15.1828C153.092 17.2893 153.092 19.4961 153.092 21.6026C153.092 22.706 152.892 23.7091 152.193 24.7122C151.393 26.0162 150.194 26.7184 148.695 26.919C147.695 27.0193 146.696 27.0193 145.796 26.6181C144.097 25.9159 143.098 24.6119 142.798 22.8063C142.698 22.5054 142.698 22.1042 142.698 21.8032C142.698 19.0949 142.698 16.3865 142.698 13.7785C142.698 12.6751 143.698 12.2739 144.397 12.4745C144.897 12.5748 145.297 12.976 145.297 13.6782C145.297 13.7785 145.297 13.8788 145.297 13.9791C145.297 16.5872 145.297 19.1952 145.297 21.9035C145.297 22.6057 145.497 23.2076 145.996 23.8094C146.396 24.2106 146.896 24.4113 147.495 24.5116C147.995 24.6119 148.495 24.5116 148.995 24.4113C149.994 24.1103 150.594 23.2076 150.594 22.1042C150.594 19.3958 150.594 16.7878 150.594 14.0794C150.594 13.7785 150.594 13.3773 150.794 13.1767C150.993 12.7754 151.393 12.5748 151.793 12.5748C152.592 12.5748 153.392 12.5748 154.292 12.5748C154.891 12.5748 155.391 13.0764 155.391 13.6782C155.391 13.8788 155.391 14.0794 155.391 14.2801C155.291 14.8819 154.791 15.1828 154.192 15.1828C153.692 14.9822 153.392 14.8819 153.092 14.8819Z" fill="#0C0C0C"/>
    <path d="M43.256 20.8001C43.3559 20.8001 43.4558 20.8001 43.5558 20.8001C45.6546 20.8001 47.7534 20.8001 49.9521 20.8001C50.5517 20.8001 51.0514 21.2014 51.1514 21.8032C51.2513 22.6057 50.9515 23.2075 50.2519 23.3078C50.052 23.3078 49.9521 23.4082 49.7522 23.4082C47.6534 23.4082 45.6546 23.4082 43.5558 23.4082C43.4558 23.4082 43.3559 23.4082 43.256 23.4082C43.256 23.5085 43.256 23.6088 43.256 23.6088C43.256 24.2106 43.256 24.8125 43.256 25.4143C43.256 26.1165 42.7563 26.7183 41.9567 26.7183C41.1572 26.7183 40.6575 26.2168 40.6575 25.5146V25.4143C40.6575 22.706 40.6575 20.098 40.6575 17.3896C40.6575 16.3865 40.8574 15.3834 41.3571 14.581C42.1566 13.1766 43.4558 12.4745 45.0549 12.2739C46.0543 12.1736 47.0538 12.1736 48.0532 12.5748C49.6522 13.277 50.6517 14.581 50.9515 16.2862C51.0514 16.6875 51.0514 17.189 51.0514 17.5902C51.0514 18.3927 50.5517 18.8943 49.8521 18.8943C49.0526 18.8943 48.5529 18.3927 48.4529 17.5902C48.4529 17.2893 48.4529 16.9884 48.353 16.6875C48.1531 15.5841 47.3536 14.8819 46.2542 14.7816C45.8545 14.7816 45.4547 14.7816 45.1549 14.8819C44.1554 15.0825 43.4558 15.885 43.256 16.8881C43.256 17.0887 43.256 17.2893 43.256 17.5902C43.256 18.5933 43.256 19.6967 43.256 20.8001Z" fill="#0C0C0C"/>
    <path d="M115.214 14.8819C114.914 14.8819 114.615 14.8819 114.315 14.8819C113.315 14.8819 112.716 14.0794 113.015 13.1766C113.115 12.6751 113.615 12.2739 114.115 12.2739C115.014 12.2739 115.914 12.2739 116.713 12.2739C117.313 12.2739 117.813 12.7754 117.813 13.4776C117.813 13.5779 117.813 13.7785 117.813 13.8788C117.813 16.3865 117.813 18.9946 117.813 21.5023C117.813 21.8032 117.813 22.1041 117.913 22.4051C118.212 23.5085 118.912 24.1103 120.111 24.2106C120.511 24.2106 120.911 24.2106 121.311 24.1103C122.31 23.9097 123.01 23.1072 123.11 22.1041C123.11 21.8032 123.11 21.6026 123.11 21.3017C123.11 20.5995 123.609 20.098 124.309 19.9976C125.108 19.9976 125.708 20.3989 125.708 21.101C125.908 23.6088 124.609 26.0162 121.81 26.618C120.411 26.919 119.012 26.8187 117.813 26.1165C116.314 25.314 115.514 24.01 115.314 22.4051C115.214 22.0038 115.214 21.6026 115.214 21.2014C115.214 19.1952 115.214 17.0887 115.214 15.0825C115.214 15.1828 115.214 15.0825 115.214 14.8819Z" fill="#0C0C0C"/>
    <path d="M84.6319 16.4868C85.1316 16.2862 85.6313 16.0856 86.131 15.9853C87.3303 15.6844 88.4297 15.7847 89.629 16.1859C91.328 16.8881 92.2275 18.2924 92.5273 20.098C92.6273 20.4992 92.6273 20.9004 92.5273 21.3017C92.4274 21.9035 91.8277 22.4051 91.2281 22.4051C90.6284 22.4051 90.0288 21.9035 89.9288 21.3017C89.9288 21.0007 89.9288 20.6998 89.8289 20.3989C89.5291 19.1952 88.5296 18.3927 87.2304 18.493C86.3309 18.493 85.5314 18.7939 85.0317 19.5964C84.7318 20.098 84.6319 20.5995 84.6319 21.101C84.6319 22.5054 84.6319 24.01 84.6319 25.4143C84.6319 26.0162 84.2321 26.5177 83.6325 26.618C82.5331 26.8186 81.9335 26.1165 81.9335 25.314C81.9335 21.402 81.9335 17.4899 81.9335 13.5779C81.9335 12.976 82.2333 12.4745 82.833 12.2739C83.4326 12.0732 84.0323 12.1736 84.432 12.7754C84.6319 12.976 84.6319 13.2769 84.6319 13.5779C84.6319 14.4807 84.6319 15.3834 84.6319 16.2862C84.6319 16.3865 84.6319 16.3865 84.6319 16.4868Z" fill="#0C0C0C"/>
    <path d="M68.7412 21.3015C68.7412 19.9975 68.7412 18.6935 68.7412 17.2892C68.7412 16.1858 69.041 15.1827 69.7406 14.1796C70.6401 12.9759 71.7394 12.374 73.2386 12.1734C74.138 12.0731 75.1375 12.0731 76.0369 12.4743C77.736 13.0762 78.7354 14.3802 79.1351 16.1858C79.2351 16.6873 79.2351 17.2892 79.2351 17.7907C79.2351 18.4929 78.6354 18.7938 77.9358 18.7938C77.2363 18.7938 76.7365 18.2922 76.7365 17.6904C76.7365 17.2892 76.7365 16.8879 76.6366 16.587C76.4367 15.4836 75.6372 14.7814 74.4379 14.7814C74.0381 14.7814 73.7383 14.7814 73.3385 14.8817C72.2392 15.0824 71.6395 15.8848 71.4396 16.8879C71.4396 17.0885 71.4396 17.2892 71.4396 17.5901C71.4396 20.1981 71.4396 22.8061 71.4396 25.4142C71.4396 25.9157 71.2397 26.4173 70.74 26.6179C70.2403 26.8185 69.7406 26.7182 69.2409 26.317C68.9411 26.016 68.8411 25.6148 68.8411 25.2136C68.6412 23.9095 68.6412 22.6055 68.7412 21.3015Z" fill="#0C0C0C"/>
</svg>
