<svg width="136" height="44" viewBox="0 0 136 44" fill="none" xmlns="http://www.w3.org/2000/svg">
    <path d="M10.836 6.552C12.544 6.552 13.566 7.644 13.566 9.422V14H12.25V9.772C12.25 8.512 11.522 7.77 10.332 7.77C8.918 7.812 8.078 8.876 8.078 10.346V14H6.762V9.772C6.762 8.512 6.048 7.77 4.844 7.77C3.43 7.812 2.576 8.876 2.576 10.346V14H1.274V6.594H2.576V8.148C3.08 7.056 4.046 6.566 5.334 6.552C6.706 6.552 7.63 7.238 7.952 8.414C8.428 7.126 9.436 6.566 10.836 6.552ZM21.6992 14H20.4112V12.964C19.8512 13.706 18.9412 14.056 17.8212 14.056C16.2532 14.056 15.2592 13.076 15.2592 11.788C15.2592 10.472 16.2812 9.632 18.0452 9.618H20.3972V9.268C20.3972 8.232 19.7532 7.63 18.5072 7.63C17.7372 7.63 16.9812 7.91 16.2252 8.428L15.6792 7.532C16.6592 6.902 17.4432 6.552 18.7732 6.552C20.6352 6.552 21.6712 7.518 21.6852 9.128L21.6992 14ZM18.0872 12.978C19.3052 12.978 20.2292 12.334 20.3972 11.368V10.626H18.2272C17.0652 10.626 16.4912 10.962 16.4912 11.732C16.4912 12.488 17.1072 12.978 18.0872 12.978ZM29.624 3.612H30.926V14H29.624V12.53C29.078 13.51 28.112 14.07 26.852 14.07C24.738 14.07 23.296 12.516 23.296 10.276C23.296 8.064 24.752 6.538 26.838 6.538C28.112 6.538 29.078 7.084 29.624 8.064V3.612ZM27.118 12.95C28.588 12.95 29.624 11.858 29.624 10.318C29.624 8.764 28.588 7.672 27.118 7.672C25.648 7.672 24.612 8.778 24.612 10.318C24.612 11.858 25.648 12.95 27.118 12.95ZM36.5076 6.552C38.9996 6.552 40.1196 8.218 39.9796 10.808H34.1276C34.3376 12.138 35.3176 12.978 36.6336 12.978C37.5016 12.978 38.2856 12.656 38.8456 12.068L39.5596 12.81C38.8456 13.594 37.7956 14.042 36.5356 14.042C34.3236 14.042 32.8116 12.516 32.8116 10.304C32.8116 8.092 34.3376 6.566 36.5076 6.552ZM34.1136 9.8H38.8176C38.7476 8.456 37.8656 7.63 36.5216 7.63C35.2056 7.63 34.2816 8.484 34.1136 9.8ZM44.7354 6.594H46.0934L48.1654 12.712L50.2094 6.594H51.5674L53.6254 12.712L55.6694 6.594H57.0134L54.2834 14H52.9254L50.8814 8.176L48.8374 14H47.4794L44.7354 6.594ZM58.875 3.64C59.337 3.64 59.687 3.99 59.687 4.48C59.687 4.956 59.337 5.32 58.875 5.32C58.413 5.32 58.063 4.956 58.063 4.48C58.063 3.99 58.413 3.64 58.875 3.64ZM58.231 6.594H59.533V14H58.231V6.594ZM65.6988 12.502L66.0488 13.51C65.5028 13.86 64.9148 14.056 64.3128 14.056C63.2208 14.056 62.3388 13.426 62.3388 11.942V7.84H61.2888V6.846H62.3388V4.858H63.6548V6.846H65.9228V7.84H63.6548V11.704C63.6548 12.558 63.9768 12.852 64.5508 12.852C64.9148 12.852 65.2788 12.74 65.6988 12.502ZM71.8373 6.552C73.5873 6.552 74.6233 7.644 74.6233 9.422V14H73.3213V9.772C73.3213 8.526 72.5793 7.784 71.3473 7.784C69.8913 7.812 69.0093 8.876 69.0093 10.36V14H67.7073V3.612H69.0093V8.19C69.5273 7.056 70.5073 6.566 71.8373 6.552Z" fill="#6B6B6B"/>
    <path d="M7.15386 43.0252H1V22.3632H6.87045V25.2157C7.8826 23.4348 10.4737 22.3014 12.6599 22.3014C15.5344 22.3014 17.5992 23.4753 18.6114 25.4586C20.1903 23.1919 22.1336 22.3014 24.8462 22.3014C28.6519 22.3014 32.2956 24.5276 32.2956 29.9919V43.0252H26.3442V31.3681C26.3442 29.4657 25.332 27.9681 23.1458 27.9681C20.9595 27.9681 19.7854 29.6276 19.7854 31.4086V43.0252H13.7126V31.3681C13.7126 29.4657 12.7004 27.9681 10.4737 27.9681C8.32794 27.9681 7.15386 29.6276 7.15386 31.4491V43.0252ZM44.252 22.3014C50.3687 22.3014 52.6103 25.8005 52.6103 29.7661V43.0252H47.4434V40.03C46.4556 41.6629 44.6319 42.7515 42.1245 42.7515C37.9833 42.7515 35.5899 39.9523 35.5899 36.8809C35.5899 33.4596 38.0593 31.5157 41.1747 31.0491L45.6197 30.3493C46.6455 30.1938 46.9874 29.6884 46.9874 29.0274C46.9874 27.8999 46.0377 26.928 44.214 26.928C42.2005 26.928 41.0987 28.3276 40.9847 29.7661L35.9698 28.7164C36.1977 25.956 38.7052 22.3014 44.252 22.3014ZM46.8822 33.8147L43.2927 34.406C42.0707 34.6031 41.1542 35.1944 41.1542 36.574C41.1542 37.5989 41.8034 38.5844 43.4072 38.5844C45.1257 38.5844 46.8822 37.7172 46.8822 34.6819V33.8147ZM101.554 43.0252H95.7496V22.2595H101.554V43.0252ZM95.4358 16.5736C95.4358 14.6228 96.9164 13.0303 98.6931 13.0303C100.544 13.0303 102.024 14.6228 102.024 16.5736C102.024 18.5245 100.544 20.117 98.6931 20.117C96.9164 20.117 95.4358 18.5245 95.4358 16.5736ZM126.731 22.3014L119.319 43.0252H113.319L105.319 22.3014H111.79L116.3 35.0165L120.457 22.3014H126.731ZM127.829 38.9151C127.829 36.6804 129.554 34.8448 131.654 34.8448C133.754 34.8448 135.516 36.6804 135.516 38.9151C135.516 41.1098 133.754 43.0252 131.654 43.0252C129.554 43.0252 127.829 41.1098 127.829 38.9151ZM61.1132 36.6441C61.4356 37.7189 62.41 38.6209 64.1782 38.6209C65.7688 38.6209 66.5437 37.7951 66.5437 36.93C66.5437 36.2222 66.0543 35.6323 64.5452 35.3177L62.2205 34.8065C57.8974 33.9021 56.1844 31.5426 56.1844 28.7899C56.1844 25.2114 59.4472 22.3014 63.9743 22.3014C69.1151 22.3014 71.3185 25.0132 71.9247 27.219L66.8431 28.5009C66.5319 27.4445 65.6723 26.6271 64.0558 26.6271C62.8731 26.6271 61.8535 27.2956 61.8535 28.318C61.8535 29.1438 62.5468 29.6157 63.4441 29.773L66.1358 30.2842C70.3367 31.11 72.3759 33.5481 72.3759 36.4188C72.3759 39.7613 69.7249 43.0252 64.3005 43.0252C58.7794 43.0252 56.5138 40.0344 55.9045 37.8301L61.1132 36.6441ZM80.8788 36.6441C81.2013 37.7189 82.1756 38.6209 83.9438 38.6209C85.5344 38.6209 86.3093 37.7951 86.3093 36.93C86.3093 36.2222 85.8199 35.6323 84.3109 35.3177L81.9862 34.8065C77.663 33.9021 75.95 31.5426 75.95 28.7899C75.95 25.2114 79.2128 22.3014 83.7399 22.3014C88.8807 22.3014 91.0841 25.0132 91.6903 27.219L86.6088 28.5009C86.2975 27.4445 85.438 26.6271 83.8215 26.6271C82.6387 26.6271 81.6191 27.2956 81.6191 28.318C81.6191 29.1438 82.3124 29.6157 83.2097 29.773L85.9015 30.2842C90.1023 31.11 92.1415 33.5481 92.1415 36.4188C92.1415 39.7613 89.4905 43.0252 84.0662 43.0252C78.545 43.0252 76.2794 40.0344 75.6702 37.8301L80.8788 36.6441Z" fill="#030303"/>
</svg>
