<svg width="48" height="48" viewBox="0 0 48 48" fill="none" xmlns="http://www.w3.org/2000/svg">
    <g filter="url(#filter0_d_2040_277)">
        <circle cx="23.9999" cy="20" r="10.6667" fill="white"/>
        <path d="M40 20C40 24.2435 38.3143 28.3131 35.3137 31.3137C32.3131 34.3143 28.2435 36 24 36C19.7565 36 15.6869 34.3143 12.6863 31.3137C9.68571 28.3131 8 24.2435 8 20C8 15.7565 9.68571 11.6869 12.6863 8.68629C15.6869 5.68571 19.7565 4 24 4C28.2435 4 32.3131 5.68571 35.3137 8.68629C38.3143 11.6869 40 15.7565 40 20ZM25 13C25 12.7348 24.8946 12.4804 24.7071 12.2929C24.5196 12.1054 24.2652 12 24 12C23.7348 12 23.4804 12.1054 23.2929 12.2929C23.1054 12.4804 23 12.7348 23 13V19H17C16.7348 19 16.4804 19.1054 16.2929 19.2929C16.1054 19.4804 16 19.7348 16 20C16 20.2652 16.1054 20.5196 16.2929 20.7071C16.4804 20.8946 16.7348 21 17 21H23V27C23 27.2652 23.1054 27.5196 23.2929 27.7071C23.4804 27.8946 23.7348 28 24 28C24.2652 28 24.5196 27.8946 24.7071 27.7071C24.8946 27.5196 25 27.2652 25 27V21H31C31.2652 21 31.5196 20.8946 31.7071 20.7071C31.8946 20.5196 32 20.2652 32 20C32 19.7348 31.8946 19.4804 31.7071 19.2929C31.5196 19.1054 31.2652 19 31 19H25V13Z" fill="#0987ED"/>
    </g>
    <defs>
        <filter id="filter0_d_2040_277" x="0" y="0" width="48" height="48" filterUnits="userSpaceOnUse" color-interpolation-filters="sRGB">
            <feFlood flood-opacity="0" result="BackgroundImageFix"/>
            <feColorMatrix in="SourceAlpha" type="matrix" values="0 0 0 0 0 0 0 0 0 0 0 0 0 0 0 0 0 0 127 0" result="hardAlpha"/>
            <feOffset dy="4"/>
            <feGaussianBlur stdDeviation="4"/>
            <feComposite in2="hardAlpha" operator="out"/>
            <feColorMatrix type="matrix" values="0 0 0 0 0.0352941 0 0 0 0 0.529412 0 0 0 0 0.929412 0 0 0 0.35 0"/>
            <feBlend mode="normal" in2="BackgroundImageFix" result="effect1_dropShadow_2040_277"/>
            <feBlend mode="normal" in="SourceGraphic" in2="effect1_dropShadow_2040_277" result="shape"/>
        </filter>
    </defs>
</svg>
